<mxfile host="app.diagrams.net" agent="Mozilla/5.0 (Macintosh; Intel Mac OS X 10_15_7) AppleWebKit/537.36 (KHTML, like Gecko) Chrome/131.0.0.0 Safari/537.36" version="26.0.2">
  <diagram id="R2lEEEUBdFMjLlhIrx00" name="Page-1">
    <mxGraphModel dx="803" dy="1610" grid="1" gridSize="10" guides="1" tooltips="1" connect="1" arrows="1" fold="1" page="1" pageScale="1" pageWidth="850" pageHeight="1100" math="0" shadow="0" extFonts="Permanent Marker^https://fonts.googleapis.com/css?family=Permanent+Marker">
      <root>
        <mxCell id="0" />
        <mxCell id="1" parent="0" />
        <mxCell id="C-vyLk0tnHw3VtMMgP7b-1" value="" style="edgeStyle=entityRelationEdgeStyle;endArrow=ERzeroToMany;startArrow=ERone;endFill=1;startFill=0;" parent="1" source="C-vyLk0tnHw3VtMMgP7b-24" target="C-vyLk0tnHw3VtMMgP7b-6" edge="1">
          <mxGeometry width="100" height="100" relative="1" as="geometry">
            <mxPoint x="340" y="720" as="sourcePoint" />
            <mxPoint x="440" y="620" as="targetPoint" />
          </mxGeometry>
        </mxCell>
        <mxCell id="C-vyLk0tnHw3VtMMgP7b-2" value="Trips" style="shape=table;startSize=30;container=1;collapsible=1;childLayout=tableLayout;fixedRows=1;rowLines=0;fontStyle=1;align=center;resizeLast=1;" parent="1" vertex="1">
          <mxGeometry x="390" y="-100" width="250" height="370" as="geometry" />
        </mxCell>
        <mxCell id="C-vyLk0tnHw3VtMMgP7b-3" value="" style="shape=partialRectangle;collapsible=0;dropTarget=0;pointerEvents=0;fillColor=none;points=[[0,0.5],[1,0.5]];portConstraint=eastwest;top=0;left=0;right=0;bottom=1;" parent="C-vyLk0tnHw3VtMMgP7b-2" vertex="1">
          <mxGeometry y="30" width="250" height="30" as="geometry" />
        </mxCell>
        <mxCell id="C-vyLk0tnHw3VtMMgP7b-4" value="PK" style="shape=partialRectangle;overflow=hidden;connectable=0;fillColor=none;top=0;left=0;bottom=0;right=0;fontStyle=1;" parent="C-vyLk0tnHw3VtMMgP7b-3" vertex="1">
          <mxGeometry width="30" height="30" as="geometry">
            <mxRectangle width="30" height="30" as="alternateBounds" />
          </mxGeometry>
        </mxCell>
        <mxCell id="C-vyLk0tnHw3VtMMgP7b-5" value="id int8 NULL" style="shape=partialRectangle;overflow=hidden;connectable=0;fillColor=none;top=0;left=0;bottom=0;right=0;align=left;spacingLeft=6;fontStyle=5;" parent="C-vyLk0tnHw3VtMMgP7b-3" vertex="1">
          <mxGeometry x="30" width="220" height="30" as="geometry">
            <mxRectangle width="220" height="30" as="alternateBounds" />
          </mxGeometry>
        </mxCell>
        <mxCell id="C-vyLk0tnHw3VtMMgP7b-6" value="" style="shape=partialRectangle;collapsible=0;dropTarget=0;pointerEvents=0;fillColor=none;points=[[0,0.5],[1,0.5]];portConstraint=eastwest;top=0;left=0;right=0;bottom=0;" parent="C-vyLk0tnHw3VtMMgP7b-2" vertex="1">
          <mxGeometry y="60" width="250" height="30" as="geometry" />
        </mxCell>
        <mxCell id="C-vyLk0tnHw3VtMMgP7b-7" value="FK1" style="shape=partialRectangle;overflow=hidden;connectable=0;fillColor=none;top=0;left=0;bottom=0;right=0;" parent="C-vyLk0tnHw3VtMMgP7b-6" vertex="1">
          <mxGeometry width="30" height="30" as="geometry">
            <mxRectangle width="30" height="30" as="alternateBounds" />
          </mxGeometry>
        </mxCell>
        <mxCell id="C-vyLk0tnHw3VtMMgP7b-8" value="user_id int8 NULL" style="shape=partialRectangle;overflow=hidden;connectable=0;fillColor=none;top=0;left=0;bottom=0;right=0;align=left;spacingLeft=6;" parent="C-vyLk0tnHw3VtMMgP7b-6" vertex="1">
          <mxGeometry x="30" width="220" height="30" as="geometry">
            <mxRectangle width="220" height="30" as="alternateBounds" />
          </mxGeometry>
        </mxCell>
        <mxCell id="C-vyLk0tnHw3VtMMgP7b-9" value="" style="shape=partialRectangle;collapsible=0;dropTarget=0;pointerEvents=0;fillColor=none;points=[[0,0.5],[1,0.5]];portConstraint=eastwest;top=0;left=0;right=0;bottom=0;" parent="C-vyLk0tnHw3VtMMgP7b-2" vertex="1">
          <mxGeometry y="90" width="250" height="30" as="geometry" />
        </mxCell>
        <mxCell id="C-vyLk0tnHw3VtMMgP7b-10" value="" style="shape=partialRectangle;overflow=hidden;connectable=0;fillColor=none;top=0;left=0;bottom=0;right=0;" parent="C-vyLk0tnHw3VtMMgP7b-9" vertex="1">
          <mxGeometry width="30" height="30" as="geometry">
            <mxRectangle width="30" height="30" as="alternateBounds" />
          </mxGeometry>
        </mxCell>
        <mxCell id="C-vyLk0tnHw3VtMMgP7b-11" value="scooter_hw_id text NULL" style="shape=partialRectangle;overflow=hidden;connectable=0;fillColor=none;top=0;left=0;bottom=0;right=0;align=left;spacingLeft=6;" parent="C-vyLk0tnHw3VtMMgP7b-9" vertex="1">
          <mxGeometry x="30" width="220" height="30" as="geometry">
            <mxRectangle width="220" height="30" as="alternateBounds" />
          </mxGeometry>
        </mxCell>
        <mxCell id="oT1v5HtR9lcozDzWwf_d-13" value="" style="shape=partialRectangle;collapsible=0;dropTarget=0;pointerEvents=0;fillColor=none;points=[[0,0.5],[1,0.5]];portConstraint=eastwest;top=0;left=0;right=0;bottom=0;" vertex="1" parent="C-vyLk0tnHw3VtMMgP7b-2">
          <mxGeometry y="120" width="250" height="30" as="geometry" />
        </mxCell>
        <mxCell id="oT1v5HtR9lcozDzWwf_d-14" value="" style="shape=partialRectangle;overflow=hidden;connectable=0;fillColor=none;top=0;left=0;bottom=0;right=0;" vertex="1" parent="oT1v5HtR9lcozDzWwf_d-13">
          <mxGeometry width="30" height="30" as="geometry">
            <mxRectangle width="30" height="30" as="alternateBounds" />
          </mxGeometry>
        </mxCell>
        <mxCell id="oT1v5HtR9lcozDzWwf_d-15" value="started_at timestamptz NULL" style="shape=partialRectangle;overflow=hidden;connectable=0;fillColor=none;top=0;left=0;bottom=0;right=0;align=left;spacingLeft=6;" vertex="1" parent="oT1v5HtR9lcozDzWwf_d-13">
          <mxGeometry x="30" width="220" height="30" as="geometry">
            <mxRectangle width="220" height="30" as="alternateBounds" />
          </mxGeometry>
        </mxCell>
        <mxCell id="oT1v5HtR9lcozDzWwf_d-16" value="" style="shape=partialRectangle;collapsible=0;dropTarget=0;pointerEvents=0;fillColor=none;points=[[0,0.5],[1,0.5]];portConstraint=eastwest;top=0;left=0;right=0;bottom=0;" vertex="1" parent="C-vyLk0tnHw3VtMMgP7b-2">
          <mxGeometry y="150" width="250" height="30" as="geometry" />
        </mxCell>
        <mxCell id="oT1v5HtR9lcozDzWwf_d-17" value="" style="shape=partialRectangle;overflow=hidden;connectable=0;fillColor=none;top=0;left=0;bottom=0;right=0;" vertex="1" parent="oT1v5HtR9lcozDzWwf_d-16">
          <mxGeometry width="30" height="30" as="geometry">
            <mxRectangle width="30" height="30" as="alternateBounds" />
          </mxGeometry>
        </mxCell>
        <mxCell id="oT1v5HtR9lcozDzWwf_d-18" value="finished_at timestamptz NULL" style="shape=partialRectangle;overflow=hidden;connectable=0;fillColor=none;top=0;left=0;bottom=0;right=0;align=left;spacingLeft=6;" vertex="1" parent="oT1v5HtR9lcozDzWwf_d-16">
          <mxGeometry x="30" width="220" height="30" as="geometry">
            <mxRectangle width="220" height="30" as="alternateBounds" />
          </mxGeometry>
        </mxCell>
        <mxCell id="oT1v5HtR9lcozDzWwf_d-19" value="" style="shape=partialRectangle;collapsible=0;dropTarget=0;pointerEvents=0;fillColor=none;points=[[0,0.5],[1,0.5]];portConstraint=eastwest;top=0;left=0;right=0;bottom=0;" vertex="1" parent="C-vyLk0tnHw3VtMMgP7b-2">
          <mxGeometry y="180" width="250" height="30" as="geometry" />
        </mxCell>
        <mxCell id="oT1v5HtR9lcozDzWwf_d-20" value="" style="shape=partialRectangle;overflow=hidden;connectable=0;fillColor=none;top=0;left=0;bottom=0;right=0;" vertex="1" parent="oT1v5HtR9lcozDzWwf_d-19">
          <mxGeometry width="30" height="30" as="geometry">
            <mxRectangle width="30" height="30" as="alternateBounds" />
          </mxGeometry>
        </mxCell>
        <mxCell id="oT1v5HtR9lcozDzWwf_d-21" value="start_lat float8 NULL" style="shape=partialRectangle;overflow=hidden;connectable=0;fillColor=none;top=0;left=0;bottom=0;right=0;align=left;spacingLeft=6;" vertex="1" parent="oT1v5HtR9lcozDzWwf_d-19">
          <mxGeometry x="30" width="220" height="30" as="geometry">
            <mxRectangle width="220" height="30" as="alternateBounds" />
          </mxGeometry>
        </mxCell>
        <mxCell id="oT1v5HtR9lcozDzWwf_d-22" value="" style="shape=partialRectangle;collapsible=0;dropTarget=0;pointerEvents=0;fillColor=none;points=[[0,0.5],[1,0.5]];portConstraint=eastwest;top=0;left=0;right=0;bottom=0;" vertex="1" parent="C-vyLk0tnHw3VtMMgP7b-2">
          <mxGeometry y="210" width="250" height="30" as="geometry" />
        </mxCell>
        <mxCell id="oT1v5HtR9lcozDzWwf_d-23" value="" style="shape=partialRectangle;overflow=hidden;connectable=0;fillColor=none;top=0;left=0;bottom=0;right=0;" vertex="1" parent="oT1v5HtR9lcozDzWwf_d-22">
          <mxGeometry width="30" height="30" as="geometry">
            <mxRectangle width="30" height="30" as="alternateBounds" />
          </mxGeometry>
        </mxCell>
        <mxCell id="oT1v5HtR9lcozDzWwf_d-24" value="start_lon float8 NULL" style="shape=partialRectangle;overflow=hidden;connectable=0;fillColor=none;top=0;left=0;bottom=0;right=0;align=left;spacingLeft=6;" vertex="1" parent="oT1v5HtR9lcozDzWwf_d-22">
          <mxGeometry x="30" width="220" height="30" as="geometry">
            <mxRectangle width="220" height="30" as="alternateBounds" />
          </mxGeometry>
        </mxCell>
        <mxCell id="oT1v5HtR9lcozDzWwf_d-25" value="" style="shape=partialRectangle;collapsible=0;dropTarget=0;pointerEvents=0;fillColor=none;points=[[0,0.5],[1,0.5]];portConstraint=eastwest;top=0;left=0;right=0;bottom=0;" vertex="1" parent="C-vyLk0tnHw3VtMMgP7b-2">
          <mxGeometry y="240" width="250" height="30" as="geometry" />
        </mxCell>
        <mxCell id="oT1v5HtR9lcozDzWwf_d-26" value="" style="shape=partialRectangle;overflow=hidden;connectable=0;fillColor=none;top=0;left=0;bottom=0;right=0;" vertex="1" parent="oT1v5HtR9lcozDzWwf_d-25">
          <mxGeometry width="30" height="30" as="geometry">
            <mxRectangle width="30" height="30" as="alternateBounds" />
          </mxGeometry>
        </mxCell>
        <mxCell id="oT1v5HtR9lcozDzWwf_d-27" value="finish_lat float8 NULL" style="shape=partialRectangle;overflow=hidden;connectable=0;fillColor=none;top=0;left=0;bottom=0;right=0;align=left;spacingLeft=6;" vertex="1" parent="oT1v5HtR9lcozDzWwf_d-25">
          <mxGeometry x="30" width="220" height="30" as="geometry">
            <mxRectangle width="220" height="30" as="alternateBounds" />
          </mxGeometry>
        </mxCell>
        <mxCell id="oT1v5HtR9lcozDzWwf_d-28" value="" style="shape=partialRectangle;collapsible=0;dropTarget=0;pointerEvents=0;fillColor=none;points=[[0,0.5],[1,0.5]];portConstraint=eastwest;top=0;left=0;right=0;bottom=0;" vertex="1" parent="C-vyLk0tnHw3VtMMgP7b-2">
          <mxGeometry y="270" width="250" height="30" as="geometry" />
        </mxCell>
        <mxCell id="oT1v5HtR9lcozDzWwf_d-29" value="" style="shape=partialRectangle;overflow=hidden;connectable=0;fillColor=none;top=0;left=0;bottom=0;right=0;" vertex="1" parent="oT1v5HtR9lcozDzWwf_d-28">
          <mxGeometry width="30" height="30" as="geometry">
            <mxRectangle width="30" height="30" as="alternateBounds" />
          </mxGeometry>
        </mxCell>
        <mxCell id="oT1v5HtR9lcozDzWwf_d-30" value="finish_lon float8 NULL" style="shape=partialRectangle;overflow=hidden;connectable=0;fillColor=none;top=0;left=0;bottom=0;right=0;align=left;spacingLeft=6;" vertex="1" parent="oT1v5HtR9lcozDzWwf_d-28">
          <mxGeometry x="30" width="220" height="30" as="geometry">
            <mxRectangle width="220" height="30" as="alternateBounds" />
          </mxGeometry>
        </mxCell>
        <mxCell id="oT1v5HtR9lcozDzWwf_d-31" value="" style="shape=partialRectangle;collapsible=0;dropTarget=0;pointerEvents=0;fillColor=none;points=[[0,0.5],[1,0.5]];portConstraint=eastwest;top=0;left=0;right=0;bottom=0;" vertex="1" parent="C-vyLk0tnHw3VtMMgP7b-2">
          <mxGeometry y="300" width="250" height="30" as="geometry" />
        </mxCell>
        <mxCell id="oT1v5HtR9lcozDzWwf_d-32" value="" style="shape=partialRectangle;overflow=hidden;connectable=0;fillColor=none;top=0;left=0;bottom=0;right=0;" vertex="1" parent="oT1v5HtR9lcozDzWwf_d-31">
          <mxGeometry width="30" height="30" as="geometry">
            <mxRectangle width="30" height="30" as="alternateBounds" />
          </mxGeometry>
        </mxCell>
        <mxCell id="oT1v5HtR9lcozDzWwf_d-33" value="distance float8 NULL" style="shape=partialRectangle;overflow=hidden;connectable=0;fillColor=none;top=0;left=0;bottom=0;right=0;align=left;spacingLeft=6;" vertex="1" parent="oT1v5HtR9lcozDzWwf_d-31">
          <mxGeometry x="30" width="220" height="30" as="geometry">
            <mxRectangle width="220" height="30" as="alternateBounds" />
          </mxGeometry>
        </mxCell>
        <mxCell id="oT1v5HtR9lcozDzWwf_d-34" value="" style="shape=partialRectangle;collapsible=0;dropTarget=0;pointerEvents=0;fillColor=none;points=[[0,0.5],[1,0.5]];portConstraint=eastwest;top=0;left=0;right=0;bottom=0;" vertex="1" parent="C-vyLk0tnHw3VtMMgP7b-2">
          <mxGeometry y="330" width="250" height="30" as="geometry" />
        </mxCell>
        <mxCell id="oT1v5HtR9lcozDzWwf_d-35" value="" style="shape=partialRectangle;overflow=hidden;connectable=0;fillColor=none;top=0;left=0;bottom=0;right=0;" vertex="1" parent="oT1v5HtR9lcozDzWwf_d-34">
          <mxGeometry width="30" height="30" as="geometry">
            <mxRectangle width="30" height="30" as="alternateBounds" />
          </mxGeometry>
        </mxCell>
        <mxCell id="oT1v5HtR9lcozDzWwf_d-36" value="price int8 NULL" style="shape=partialRectangle;overflow=hidden;connectable=0;fillColor=none;top=0;left=0;bottom=0;right=0;align=left;spacingLeft=6;" vertex="1" parent="oT1v5HtR9lcozDzWwf_d-34">
          <mxGeometry x="30" width="220" height="30" as="geometry">
            <mxRectangle width="220" height="30" as="alternateBounds" />
          </mxGeometry>
        </mxCell>
        <mxCell id="C-vyLk0tnHw3VtMMgP7b-13" value="Users" style="shape=table;startSize=30;container=1;collapsible=1;childLayout=tableLayout;fixedRows=1;rowLines=0;fontStyle=1;align=center;resizeLast=1;" parent="1" vertex="1">
          <mxGeometry x="720" y="-190" width="250" height="210" as="geometry" />
        </mxCell>
        <mxCell id="C-vyLk0tnHw3VtMMgP7b-14" value="" style="shape=partialRectangle;collapsible=0;dropTarget=0;pointerEvents=0;fillColor=none;points=[[0,0.5],[1,0.5]];portConstraint=eastwest;top=0;left=0;right=0;bottom=1;" parent="C-vyLk0tnHw3VtMMgP7b-13" vertex="1">
          <mxGeometry y="30" width="250" height="30" as="geometry" />
        </mxCell>
        <mxCell id="C-vyLk0tnHw3VtMMgP7b-15" value="PK" style="shape=partialRectangle;overflow=hidden;connectable=0;fillColor=none;top=0;left=0;bottom=0;right=0;fontStyle=1;" parent="C-vyLk0tnHw3VtMMgP7b-14" vertex="1">
          <mxGeometry width="30" height="30" as="geometry">
            <mxRectangle width="30" height="30" as="alternateBounds" />
          </mxGeometry>
        </mxCell>
        <mxCell id="C-vyLk0tnHw3VtMMgP7b-16" value="id int8 NULL" style="shape=partialRectangle;overflow=hidden;connectable=0;fillColor=none;top=0;left=0;bottom=0;right=0;align=left;spacingLeft=6;fontStyle=5;" parent="C-vyLk0tnHw3VtMMgP7b-14" vertex="1">
          <mxGeometry x="30" width="220" height="30" as="geometry">
            <mxRectangle width="220" height="30" as="alternateBounds" />
          </mxGeometry>
        </mxCell>
        <mxCell id="C-vyLk0tnHw3VtMMgP7b-17" value="" style="shape=partialRectangle;collapsible=0;dropTarget=0;pointerEvents=0;fillColor=none;points=[[0,0.5],[1,0.5]];portConstraint=eastwest;top=0;left=0;right=0;bottom=0;" parent="C-vyLk0tnHw3VtMMgP7b-13" vertex="1">
          <mxGeometry y="60" width="250" height="30" as="geometry" />
        </mxCell>
        <mxCell id="C-vyLk0tnHw3VtMMgP7b-18" value="" style="shape=partialRectangle;overflow=hidden;connectable=0;fillColor=none;top=0;left=0;bottom=0;right=0;" parent="C-vyLk0tnHw3VtMMgP7b-17" vertex="1">
          <mxGeometry width="30" height="30" as="geometry">
            <mxRectangle width="30" height="30" as="alternateBounds" />
          </mxGeometry>
        </mxCell>
        <mxCell id="C-vyLk0tnHw3VtMMgP7b-19" value="first_name text NULL" style="shape=partialRectangle;overflow=hidden;connectable=0;fillColor=none;top=0;left=0;bottom=0;right=0;align=left;spacingLeft=6;" parent="C-vyLk0tnHw3VtMMgP7b-17" vertex="1">
          <mxGeometry x="30" width="220" height="30" as="geometry">
            <mxRectangle width="220" height="30" as="alternateBounds" />
          </mxGeometry>
        </mxCell>
        <mxCell id="C-vyLk0tnHw3VtMMgP7b-20" value="" style="shape=partialRectangle;collapsible=0;dropTarget=0;pointerEvents=0;fillColor=none;points=[[0,0.5],[1,0.5]];portConstraint=eastwest;top=0;left=0;right=0;bottom=0;" parent="C-vyLk0tnHw3VtMMgP7b-13" vertex="1">
          <mxGeometry y="90" width="250" height="30" as="geometry" />
        </mxCell>
        <mxCell id="C-vyLk0tnHw3VtMMgP7b-21" value="" style="shape=partialRectangle;overflow=hidden;connectable=0;fillColor=none;top=0;left=0;bottom=0;right=0;" parent="C-vyLk0tnHw3VtMMgP7b-20" vertex="1">
          <mxGeometry width="30" height="30" as="geometry">
            <mxRectangle width="30" height="30" as="alternateBounds" />
          </mxGeometry>
        </mxCell>
        <mxCell id="C-vyLk0tnHw3VtMMgP7b-22" value="last_name text NULL" style="shape=partialRectangle;overflow=hidden;connectable=0;fillColor=none;top=0;left=0;bottom=0;right=0;align=left;spacingLeft=6;" parent="C-vyLk0tnHw3VtMMgP7b-20" vertex="1">
          <mxGeometry x="30" width="220" height="30" as="geometry">
            <mxRectangle width="220" height="30" as="alternateBounds" />
          </mxGeometry>
        </mxCell>
        <mxCell id="oT1v5HtR9lcozDzWwf_d-37" value="" style="shape=partialRectangle;collapsible=0;dropTarget=0;pointerEvents=0;fillColor=none;points=[[0,0.5],[1,0.5]];portConstraint=eastwest;top=0;left=0;right=0;bottom=0;" vertex="1" parent="C-vyLk0tnHw3VtMMgP7b-13">
          <mxGeometry y="120" width="250" height="30" as="geometry" />
        </mxCell>
        <mxCell id="oT1v5HtR9lcozDzWwf_d-38" value="" style="shape=partialRectangle;overflow=hidden;connectable=0;fillColor=none;top=0;left=0;bottom=0;right=0;" vertex="1" parent="oT1v5HtR9lcozDzWwf_d-37">
          <mxGeometry width="30" height="30" as="geometry">
            <mxRectangle width="30" height="30" as="alternateBounds" />
          </mxGeometry>
        </mxCell>
        <mxCell id="oT1v5HtR9lcozDzWwf_d-39" value="phone text NULL" style="shape=partialRectangle;overflow=hidden;connectable=0;fillColor=none;top=0;left=0;bottom=0;right=0;align=left;spacingLeft=6;" vertex="1" parent="oT1v5HtR9lcozDzWwf_d-37">
          <mxGeometry x="30" width="220" height="30" as="geometry">
            <mxRectangle width="220" height="30" as="alternateBounds" />
          </mxGeometry>
        </mxCell>
        <mxCell id="oT1v5HtR9lcozDzWwf_d-40" value="" style="shape=partialRectangle;collapsible=0;dropTarget=0;pointerEvents=0;fillColor=none;points=[[0,0.5],[1,0.5]];portConstraint=eastwest;top=0;left=0;right=0;bottom=0;" vertex="1" parent="C-vyLk0tnHw3VtMMgP7b-13">
          <mxGeometry y="150" width="250" height="30" as="geometry" />
        </mxCell>
        <mxCell id="oT1v5HtR9lcozDzWwf_d-41" value="" style="shape=partialRectangle;overflow=hidden;connectable=0;fillColor=none;top=0;left=0;bottom=0;right=0;" vertex="1" parent="oT1v5HtR9lcozDzWwf_d-40">
          <mxGeometry width="30" height="30" as="geometry">
            <mxRectangle width="30" height="30" as="alternateBounds" />
          </mxGeometry>
        </mxCell>
        <mxCell id="oT1v5HtR9lcozDzWwf_d-42" value="sex text NULL" style="shape=partialRectangle;overflow=hidden;connectable=0;fillColor=none;top=0;left=0;bottom=0;right=0;align=left;spacingLeft=6;" vertex="1" parent="oT1v5HtR9lcozDzWwf_d-40">
          <mxGeometry x="30" width="220" height="30" as="geometry">
            <mxRectangle width="220" height="30" as="alternateBounds" />
          </mxGeometry>
        </mxCell>
        <mxCell id="oT1v5HtR9lcozDzWwf_d-43" value="" style="shape=partialRectangle;collapsible=0;dropTarget=0;pointerEvents=0;fillColor=none;points=[[0,0.5],[1,0.5]];portConstraint=eastwest;top=0;left=0;right=0;bottom=0;" vertex="1" parent="C-vyLk0tnHw3VtMMgP7b-13">
          <mxGeometry y="180" width="250" height="30" as="geometry" />
        </mxCell>
        <mxCell id="oT1v5HtR9lcozDzWwf_d-44" value="" style="shape=partialRectangle;overflow=hidden;connectable=0;fillColor=none;top=0;left=0;bottom=0;right=0;" vertex="1" parent="oT1v5HtR9lcozDzWwf_d-43">
          <mxGeometry width="30" height="30" as="geometry">
            <mxRectangle width="30" height="30" as="alternateBounds" />
          </mxGeometry>
        </mxCell>
        <mxCell id="oT1v5HtR9lcozDzWwf_d-45" value="birth_date date NULL" style="shape=partialRectangle;overflow=hidden;connectable=0;fillColor=none;top=0;left=0;bottom=0;right=0;align=left;spacingLeft=6;" vertex="1" parent="oT1v5HtR9lcozDzWwf_d-43">
          <mxGeometry x="30" width="220" height="30" as="geometry">
            <mxRectangle width="220" height="30" as="alternateBounds" />
          </mxGeometry>
        </mxCell>
        <mxCell id="C-vyLk0tnHw3VtMMgP7b-23" value="Events" style="shape=table;startSize=30;container=1;collapsible=1;childLayout=tableLayout;fixedRows=1;rowLines=0;fontStyle=1;align=center;resizeLast=1;" parent="1" vertex="1">
          <mxGeometry x="40" y="-90" width="250" height="120" as="geometry" />
        </mxCell>
        <mxCell id="C-vyLk0tnHw3VtMMgP7b-24" value="" style="shape=partialRectangle;collapsible=0;dropTarget=0;pointerEvents=0;fillColor=none;points=[[0,0.5],[1,0.5]];portConstraint=eastwest;top=0;left=0;right=0;bottom=1;" parent="C-vyLk0tnHw3VtMMgP7b-23" vertex="1">
          <mxGeometry y="30" width="250" height="30" as="geometry" />
        </mxCell>
        <mxCell id="C-vyLk0tnHw3VtMMgP7b-25" value="PK" style="shape=partialRectangle;overflow=hidden;connectable=0;fillColor=none;top=0;left=0;bottom=0;right=0;fontStyle=1;" parent="C-vyLk0tnHw3VtMMgP7b-24" vertex="1">
          <mxGeometry width="30" height="30" as="geometry">
            <mxRectangle width="30" height="30" as="alternateBounds" />
          </mxGeometry>
        </mxCell>
        <mxCell id="C-vyLk0tnHw3VtMMgP7b-26" value="user_id int8 NULL" style="shape=partialRectangle;overflow=hidden;connectable=0;fillColor=none;top=0;left=0;bottom=0;right=0;align=left;spacingLeft=6;fontStyle=5;" parent="C-vyLk0tnHw3VtMMgP7b-24" vertex="1">
          <mxGeometry x="30" width="220" height="30" as="geometry">
            <mxRectangle width="220" height="30" as="alternateBounds" />
          </mxGeometry>
        </mxCell>
        <mxCell id="C-vyLk0tnHw3VtMMgP7b-27" value="" style="shape=partialRectangle;collapsible=0;dropTarget=0;pointerEvents=0;fillColor=none;points=[[0,0.5],[1,0.5]];portConstraint=eastwest;top=0;left=0;right=0;bottom=0;" parent="C-vyLk0tnHw3VtMMgP7b-23" vertex="1">
          <mxGeometry y="60" width="250" height="30" as="geometry" />
        </mxCell>
        <mxCell id="C-vyLk0tnHw3VtMMgP7b-28" value="" style="shape=partialRectangle;overflow=hidden;connectable=0;fillColor=none;top=0;left=0;bottom=0;right=0;" parent="C-vyLk0tnHw3VtMMgP7b-27" vertex="1">
          <mxGeometry width="30" height="30" as="geometry">
            <mxRectangle width="30" height="30" as="alternateBounds" />
          </mxGeometry>
        </mxCell>
        <mxCell id="C-vyLk0tnHw3VtMMgP7b-29" value="&quot;timestamp&quot; timestamp NULL" style="shape=partialRectangle;overflow=hidden;connectable=0;fillColor=none;top=0;left=0;bottom=0;right=0;align=left;spacingLeft=6;" parent="C-vyLk0tnHw3VtMMgP7b-27" vertex="1">
          <mxGeometry x="30" width="220" height="30" as="geometry">
            <mxRectangle width="220" height="30" as="alternateBounds" />
          </mxGeometry>
        </mxCell>
        <mxCell id="oT1v5HtR9lcozDzWwf_d-10" value="" style="shape=partialRectangle;collapsible=0;dropTarget=0;pointerEvents=0;fillColor=none;points=[[0,0.5],[1,0.5]];portConstraint=eastwest;top=0;left=0;right=0;bottom=0;" vertex="1" parent="C-vyLk0tnHw3VtMMgP7b-23">
          <mxGeometry y="90" width="250" height="30" as="geometry" />
        </mxCell>
        <mxCell id="oT1v5HtR9lcozDzWwf_d-11" value="" style="shape=partialRectangle;overflow=hidden;connectable=0;fillColor=none;top=0;left=0;bottom=0;right=0;" vertex="1" parent="oT1v5HtR9lcozDzWwf_d-10">
          <mxGeometry width="30" height="30" as="geometry">
            <mxRectangle width="30" height="30" as="alternateBounds" />
          </mxGeometry>
        </mxCell>
        <mxCell id="oT1v5HtR9lcozDzWwf_d-12" value="type_id int8 NULL" style="shape=partialRectangle;overflow=hidden;connectable=0;fillColor=none;top=0;left=0;bottom=0;right=0;align=left;spacingLeft=6;" vertex="1" parent="oT1v5HtR9lcozDzWwf_d-10">
          <mxGeometry x="30" width="220" height="30" as="geometry">
            <mxRectangle width="220" height="30" as="alternateBounds" />
          </mxGeometry>
        </mxCell>
        <mxCell id="oT1v5HtR9lcozDzWwf_d-5" value="" style="shape=partialRectangle;overflow=hidden;connectable=0;fillColor=none;top=0;left=0;bottom=0;right=0;" vertex="1" parent="1">
          <mxGeometry x="40" y="110" width="30" height="30" as="geometry">
            <mxRectangle width="30" height="30" as="alternateBounds" />
          </mxGeometry>
        </mxCell>
        <mxCell id="oT1v5HtR9lcozDzWwf_d-46" value="" style="edgeStyle=entityRelationEdgeStyle;endArrow=ERzeroToMany;startArrow=ERone;endFill=1;startFill=0;exitX=0;exitY=0.5;exitDx=0;exitDy=0;" edge="1" parent="1" source="C-vyLk0tnHw3VtMMgP7b-14" target="C-vyLk0tnHw3VtMMgP7b-6">
          <mxGeometry width="100" height="100" relative="1" as="geometry">
            <mxPoint x="300" y="-35" as="sourcePoint" />
            <mxPoint x="390" y="45" as="targetPoint" />
            <Array as="points">
              <mxPoint x="320" y="40" />
              <mxPoint x="370" y="40" />
              <mxPoint x="410" y="40" />
            </Array>
          </mxGeometry>
        </mxCell>
        <mxCell id="oT1v5HtR9lcozDzWwf_d-47" value="" style="endArrow=none;html=1;rounded=0;" edge="1" parent="1">
          <mxGeometry relative="1" as="geometry">
            <mxPoint x="80" y="320" as="sourcePoint" />
            <mxPoint x="840" y="320" as="targetPoint" />
          </mxGeometry>
        </mxCell>
        <mxCell id="oT1v5HtR9lcozDzWwf_d-48" value="1" style="resizable=0;html=1;whiteSpace=wrap;align=right;verticalAlign=bottom;" connectable="0" vertex="1" parent="oT1v5HtR9lcozDzWwf_d-47">
          <mxGeometry x="1" relative="1" as="geometry" />
        </mxCell>
        <mxCell id="oT1v5HtR9lcozDzWwf_d-49" value="trips_prep (view)" style="shape=table;startSize=30;container=1;collapsible=1;childLayout=tableLayout;fixedRows=1;rowLines=0;fontStyle=1;align=center;resizeLast=1;html=1;" vertex="1" parent="1">
          <mxGeometry x="80" y="390" width="180" height="450" as="geometry" />
        </mxCell>
        <mxCell id="oT1v5HtR9lcozDzWwf_d-50" value="" style="shape=tableRow;horizontal=0;startSize=0;swimlaneHead=0;swimlaneBody=0;fillColor=none;collapsible=0;dropTarget=0;points=[[0,0.5],[1,0.5]];portConstraint=eastwest;top=0;left=0;right=0;bottom=1;" vertex="1" parent="oT1v5HtR9lcozDzWwf_d-49">
          <mxGeometry y="30" width="180" height="30" as="geometry" />
        </mxCell>
        <mxCell id="oT1v5HtR9lcozDzWwf_d-51" value="PK" style="shape=partialRectangle;connectable=0;fillColor=none;top=0;left=0;bottom=0;right=0;fontStyle=1;overflow=hidden;whiteSpace=wrap;html=1;" vertex="1" parent="oT1v5HtR9lcozDzWwf_d-50">
          <mxGeometry width="30" height="30" as="geometry">
            <mxRectangle width="30" height="30" as="alternateBounds" />
          </mxGeometry>
        </mxCell>
        <mxCell id="oT1v5HtR9lcozDzWwf_d-52" value="id" style="shape=partialRectangle;connectable=0;fillColor=none;top=0;left=0;bottom=0;right=0;align=left;spacingLeft=6;fontStyle=5;overflow=hidden;whiteSpace=wrap;html=1;" vertex="1" parent="oT1v5HtR9lcozDzWwf_d-50">
          <mxGeometry x="30" width="150" height="30" as="geometry">
            <mxRectangle width="150" height="30" as="alternateBounds" />
          </mxGeometry>
        </mxCell>
        <mxCell id="oT1v5HtR9lcozDzWwf_d-53" value="" style="shape=tableRow;horizontal=0;startSize=0;swimlaneHead=0;swimlaneBody=0;fillColor=none;collapsible=0;dropTarget=0;points=[[0,0.5],[1,0.5]];portConstraint=eastwest;top=0;left=0;right=0;bottom=0;" vertex="1" parent="oT1v5HtR9lcozDzWwf_d-49">
          <mxGeometry y="60" width="180" height="30" as="geometry" />
        </mxCell>
        <mxCell id="oT1v5HtR9lcozDzWwf_d-54" value="" style="shape=partialRectangle;connectable=0;fillColor=none;top=0;left=0;bottom=0;right=0;editable=1;overflow=hidden;whiteSpace=wrap;html=1;" vertex="1" parent="oT1v5HtR9lcozDzWwf_d-53">
          <mxGeometry width="30" height="30" as="geometry">
            <mxRectangle width="30" height="30" as="alternateBounds" />
          </mxGeometry>
        </mxCell>
        <mxCell id="oT1v5HtR9lcozDzWwf_d-55" value="&lt;span style=&quot;text-wrap-mode: nowrap;&quot;&gt;user_id&lt;/span&gt;" style="shape=partialRectangle;connectable=0;fillColor=none;top=0;left=0;bottom=0;right=0;align=left;spacingLeft=6;overflow=hidden;whiteSpace=wrap;html=1;" vertex="1" parent="oT1v5HtR9lcozDzWwf_d-53">
          <mxGeometry x="30" width="150" height="30" as="geometry">
            <mxRectangle width="150" height="30" as="alternateBounds" />
          </mxGeometry>
        </mxCell>
        <mxCell id="oT1v5HtR9lcozDzWwf_d-56" value="" style="shape=tableRow;horizontal=0;startSize=0;swimlaneHead=0;swimlaneBody=0;fillColor=none;collapsible=0;dropTarget=0;points=[[0,0.5],[1,0.5]];portConstraint=eastwest;top=0;left=0;right=0;bottom=0;" vertex="1" parent="oT1v5HtR9lcozDzWwf_d-49">
          <mxGeometry y="90" width="180" height="30" as="geometry" />
        </mxCell>
        <mxCell id="oT1v5HtR9lcozDzWwf_d-57" value="" style="shape=partialRectangle;connectable=0;fillColor=none;top=0;left=0;bottom=0;right=0;editable=1;overflow=hidden;whiteSpace=wrap;html=1;" vertex="1" parent="oT1v5HtR9lcozDzWwf_d-56">
          <mxGeometry width="30" height="30" as="geometry">
            <mxRectangle width="30" height="30" as="alternateBounds" />
          </mxGeometry>
        </mxCell>
        <mxCell id="oT1v5HtR9lcozDzWwf_d-58" value="&lt;span style=&quot;text-wrap-mode: nowrap;&quot;&gt;scooter_hw_id&lt;/span&gt;" style="shape=partialRectangle;connectable=0;fillColor=none;top=0;left=0;bottom=0;right=0;align=left;spacingLeft=6;overflow=hidden;whiteSpace=wrap;html=1;" vertex="1" parent="oT1v5HtR9lcozDzWwf_d-56">
          <mxGeometry x="30" width="150" height="30" as="geometry">
            <mxRectangle width="150" height="30" as="alternateBounds" />
          </mxGeometry>
        </mxCell>
        <mxCell id="oT1v5HtR9lcozDzWwf_d-59" value="" style="shape=tableRow;horizontal=0;startSize=0;swimlaneHead=0;swimlaneBody=0;fillColor=none;collapsible=0;dropTarget=0;points=[[0,0.5],[1,0.5]];portConstraint=eastwest;top=0;left=0;right=0;bottom=0;" vertex="1" parent="oT1v5HtR9lcozDzWwf_d-49">
          <mxGeometry y="120" width="180" height="30" as="geometry" />
        </mxCell>
        <mxCell id="oT1v5HtR9lcozDzWwf_d-60" value="" style="shape=partialRectangle;connectable=0;fillColor=none;top=0;left=0;bottom=0;right=0;editable=1;overflow=hidden;whiteSpace=wrap;html=1;" vertex="1" parent="oT1v5HtR9lcozDzWwf_d-59">
          <mxGeometry width="30" height="30" as="geometry">
            <mxRectangle width="30" height="30" as="alternateBounds" />
          </mxGeometry>
        </mxCell>
        <mxCell id="oT1v5HtR9lcozDzWwf_d-61" value="&lt;span style=&quot;text-wrap-mode: nowrap;&quot;&gt;started_at&lt;/span&gt;" style="shape=partialRectangle;connectable=0;fillColor=none;top=0;left=0;bottom=0;right=0;align=left;spacingLeft=6;overflow=hidden;whiteSpace=wrap;html=1;" vertex="1" parent="oT1v5HtR9lcozDzWwf_d-59">
          <mxGeometry x="30" width="150" height="30" as="geometry">
            <mxRectangle width="150" height="30" as="alternateBounds" />
          </mxGeometry>
        </mxCell>
        <mxCell id="oT1v5HtR9lcozDzWwf_d-66" value="" style="shape=tableRow;horizontal=0;startSize=0;swimlaneHead=0;swimlaneBody=0;fillColor=none;collapsible=0;dropTarget=0;points=[[0,0.5],[1,0.5]];portConstraint=eastwest;top=0;left=0;right=0;bottom=0;" vertex="1" parent="oT1v5HtR9lcozDzWwf_d-49">
          <mxGeometry y="150" width="180" height="30" as="geometry" />
        </mxCell>
        <mxCell id="oT1v5HtR9lcozDzWwf_d-67" value="" style="shape=partialRectangle;connectable=0;fillColor=none;top=0;left=0;bottom=0;right=0;editable=1;overflow=hidden;whiteSpace=wrap;html=1;" vertex="1" parent="oT1v5HtR9lcozDzWwf_d-66">
          <mxGeometry width="30" height="30" as="geometry">
            <mxRectangle width="30" height="30" as="alternateBounds" />
          </mxGeometry>
        </mxCell>
        <mxCell id="oT1v5HtR9lcozDzWwf_d-68" value="&lt;span style=&quot;text-wrap-mode: nowrap;&quot;&gt;finished_at&lt;/span&gt;" style="shape=partialRectangle;connectable=0;fillColor=none;top=0;left=0;bottom=0;right=0;align=left;spacingLeft=6;overflow=hidden;whiteSpace=wrap;html=1;" vertex="1" parent="oT1v5HtR9lcozDzWwf_d-66">
          <mxGeometry x="30" width="150" height="30" as="geometry">
            <mxRectangle width="150" height="30" as="alternateBounds" />
          </mxGeometry>
        </mxCell>
        <mxCell id="oT1v5HtR9lcozDzWwf_d-69" value="" style="shape=tableRow;horizontal=0;startSize=0;swimlaneHead=0;swimlaneBody=0;fillColor=none;collapsible=0;dropTarget=0;points=[[0,0.5],[1,0.5]];portConstraint=eastwest;top=0;left=0;right=0;bottom=0;" vertex="1" parent="oT1v5HtR9lcozDzWwf_d-49">
          <mxGeometry y="180" width="180" height="30" as="geometry" />
        </mxCell>
        <mxCell id="oT1v5HtR9lcozDzWwf_d-70" value="" style="shape=partialRectangle;connectable=0;fillColor=none;top=0;left=0;bottom=0;right=0;editable=1;overflow=hidden;whiteSpace=wrap;html=1;" vertex="1" parent="oT1v5HtR9lcozDzWwf_d-69">
          <mxGeometry width="30" height="30" as="geometry">
            <mxRectangle width="30" height="30" as="alternateBounds" />
          </mxGeometry>
        </mxCell>
        <mxCell id="oT1v5HtR9lcozDzWwf_d-71" value="&lt;span style=&quot;text-wrap-mode: nowrap;&quot;&gt;start_lat&lt;/span&gt;" style="shape=partialRectangle;connectable=0;fillColor=none;top=0;left=0;bottom=0;right=0;align=left;spacingLeft=6;overflow=hidden;whiteSpace=wrap;html=1;" vertex="1" parent="oT1v5HtR9lcozDzWwf_d-69">
          <mxGeometry x="30" width="150" height="30" as="geometry">
            <mxRectangle width="150" height="30" as="alternateBounds" />
          </mxGeometry>
        </mxCell>
        <mxCell id="oT1v5HtR9lcozDzWwf_d-72" value="" style="shape=tableRow;horizontal=0;startSize=0;swimlaneHead=0;swimlaneBody=0;fillColor=none;collapsible=0;dropTarget=0;points=[[0,0.5],[1,0.5]];portConstraint=eastwest;top=0;left=0;right=0;bottom=0;" vertex="1" parent="oT1v5HtR9lcozDzWwf_d-49">
          <mxGeometry y="210" width="180" height="30" as="geometry" />
        </mxCell>
        <mxCell id="oT1v5HtR9lcozDzWwf_d-73" value="" style="shape=partialRectangle;connectable=0;fillColor=none;top=0;left=0;bottom=0;right=0;editable=1;overflow=hidden;whiteSpace=wrap;html=1;" vertex="1" parent="oT1v5HtR9lcozDzWwf_d-72">
          <mxGeometry width="30" height="30" as="geometry">
            <mxRectangle width="30" height="30" as="alternateBounds" />
          </mxGeometry>
        </mxCell>
        <mxCell id="oT1v5HtR9lcozDzWwf_d-74" value="&lt;span style=&quot;text-wrap-mode: nowrap;&quot;&gt;start_lon&lt;/span&gt;" style="shape=partialRectangle;connectable=0;fillColor=none;top=0;left=0;bottom=0;right=0;align=left;spacingLeft=6;overflow=hidden;whiteSpace=wrap;html=1;" vertex="1" parent="oT1v5HtR9lcozDzWwf_d-72">
          <mxGeometry x="30" width="150" height="30" as="geometry">
            <mxRectangle width="150" height="30" as="alternateBounds" />
          </mxGeometry>
        </mxCell>
        <mxCell id="oT1v5HtR9lcozDzWwf_d-75" value="" style="shape=tableRow;horizontal=0;startSize=0;swimlaneHead=0;swimlaneBody=0;fillColor=none;collapsible=0;dropTarget=0;points=[[0,0.5],[1,0.5]];portConstraint=eastwest;top=0;left=0;right=0;bottom=0;" vertex="1" parent="oT1v5HtR9lcozDzWwf_d-49">
          <mxGeometry y="240" width="180" height="30" as="geometry" />
        </mxCell>
        <mxCell id="oT1v5HtR9lcozDzWwf_d-76" value="" style="shape=partialRectangle;connectable=0;fillColor=none;top=0;left=0;bottom=0;right=0;editable=1;overflow=hidden;whiteSpace=wrap;html=1;" vertex="1" parent="oT1v5HtR9lcozDzWwf_d-75">
          <mxGeometry width="30" height="30" as="geometry">
            <mxRectangle width="30" height="30" as="alternateBounds" />
          </mxGeometry>
        </mxCell>
        <mxCell id="oT1v5HtR9lcozDzWwf_d-77" value="&lt;span style=&quot;text-wrap-mode: nowrap;&quot;&gt;finish_lat&lt;/span&gt;" style="shape=partialRectangle;connectable=0;fillColor=none;top=0;left=0;bottom=0;right=0;align=left;spacingLeft=6;overflow=hidden;whiteSpace=wrap;html=1;" vertex="1" parent="oT1v5HtR9lcozDzWwf_d-75">
          <mxGeometry x="30" width="150" height="30" as="geometry">
            <mxRectangle width="150" height="30" as="alternateBounds" />
          </mxGeometry>
        </mxCell>
        <mxCell id="oT1v5HtR9lcozDzWwf_d-78" value="" style="shape=tableRow;horizontal=0;startSize=0;swimlaneHead=0;swimlaneBody=0;fillColor=none;collapsible=0;dropTarget=0;points=[[0,0.5],[1,0.5]];portConstraint=eastwest;top=0;left=0;right=0;bottom=0;" vertex="1" parent="oT1v5HtR9lcozDzWwf_d-49">
          <mxGeometry y="270" width="180" height="30" as="geometry" />
        </mxCell>
        <mxCell id="oT1v5HtR9lcozDzWwf_d-79" value="" style="shape=partialRectangle;connectable=0;fillColor=none;top=0;left=0;bottom=0;right=0;editable=1;overflow=hidden;whiteSpace=wrap;html=1;" vertex="1" parent="oT1v5HtR9lcozDzWwf_d-78">
          <mxGeometry width="30" height="30" as="geometry">
            <mxRectangle width="30" height="30" as="alternateBounds" />
          </mxGeometry>
        </mxCell>
        <mxCell id="oT1v5HtR9lcozDzWwf_d-80" value="&lt;span style=&quot;text-wrap-mode: nowrap;&quot;&gt;finish_lon&lt;/span&gt;" style="shape=partialRectangle;connectable=0;fillColor=none;top=0;left=0;bottom=0;right=0;align=left;spacingLeft=6;overflow=hidden;whiteSpace=wrap;html=1;" vertex="1" parent="oT1v5HtR9lcozDzWwf_d-78">
          <mxGeometry x="30" width="150" height="30" as="geometry">
            <mxRectangle width="150" height="30" as="alternateBounds" />
          </mxGeometry>
        </mxCell>
        <mxCell id="oT1v5HtR9lcozDzWwf_d-81" value="" style="shape=tableRow;horizontal=0;startSize=0;swimlaneHead=0;swimlaneBody=0;fillColor=none;collapsible=0;dropTarget=0;points=[[0,0.5],[1,0.5]];portConstraint=eastwest;top=0;left=0;right=0;bottom=0;" vertex="1" parent="oT1v5HtR9lcozDzWwf_d-49">
          <mxGeometry y="300" width="180" height="30" as="geometry" />
        </mxCell>
        <mxCell id="oT1v5HtR9lcozDzWwf_d-82" value="" style="shape=partialRectangle;connectable=0;fillColor=none;top=0;left=0;bottom=0;right=0;editable=1;overflow=hidden;whiteSpace=wrap;html=1;" vertex="1" parent="oT1v5HtR9lcozDzWwf_d-81">
          <mxGeometry width="30" height="30" as="geometry">
            <mxRectangle width="30" height="30" as="alternateBounds" />
          </mxGeometry>
        </mxCell>
        <mxCell id="oT1v5HtR9lcozDzWwf_d-83" value="&lt;span style=&quot;text-wrap-mode: nowrap;&quot;&gt;distance_m&lt;/span&gt;" style="shape=partialRectangle;connectable=0;fillColor=none;top=0;left=0;bottom=0;right=0;align=left;spacingLeft=6;overflow=hidden;whiteSpace=wrap;html=1;" vertex="1" parent="oT1v5HtR9lcozDzWwf_d-81">
          <mxGeometry x="30" width="150" height="30" as="geometry">
            <mxRectangle width="150" height="30" as="alternateBounds" />
          </mxGeometry>
        </mxCell>
        <mxCell id="oT1v5HtR9lcozDzWwf_d-84" value="" style="shape=tableRow;horizontal=0;startSize=0;swimlaneHead=0;swimlaneBody=0;fillColor=none;collapsible=0;dropTarget=0;points=[[0,0.5],[1,0.5]];portConstraint=eastwest;top=0;left=0;right=0;bottom=0;" vertex="1" parent="oT1v5HtR9lcozDzWwf_d-49">
          <mxGeometry y="330" width="180" height="30" as="geometry" />
        </mxCell>
        <mxCell id="oT1v5HtR9lcozDzWwf_d-85" value="" style="shape=partialRectangle;connectable=0;fillColor=none;top=0;left=0;bottom=0;right=0;editable=1;overflow=hidden;whiteSpace=wrap;html=1;" vertex="1" parent="oT1v5HtR9lcozDzWwf_d-84">
          <mxGeometry width="30" height="30" as="geometry">
            <mxRectangle width="30" height="30" as="alternateBounds" />
          </mxGeometry>
        </mxCell>
        <mxCell id="oT1v5HtR9lcozDzWwf_d-86" value="&lt;span style=&quot;text-wrap-mode: nowrap;&quot;&gt;price_rub&lt;/span&gt;" style="shape=partialRectangle;connectable=0;fillColor=none;top=0;left=0;bottom=0;right=0;align=left;spacingLeft=6;overflow=hidden;whiteSpace=wrap;html=1;" vertex="1" parent="oT1v5HtR9lcozDzWwf_d-84">
          <mxGeometry x="30" width="150" height="30" as="geometry">
            <mxRectangle width="150" height="30" as="alternateBounds" />
          </mxGeometry>
        </mxCell>
        <mxCell id="oT1v5HtR9lcozDzWwf_d-87" value="" style="shape=tableRow;horizontal=0;startSize=0;swimlaneHead=0;swimlaneBody=0;fillColor=none;collapsible=0;dropTarget=0;points=[[0,0.5],[1,0.5]];portConstraint=eastwest;top=0;left=0;right=0;bottom=0;" vertex="1" parent="oT1v5HtR9lcozDzWwf_d-49">
          <mxGeometry y="360" width="180" height="30" as="geometry" />
        </mxCell>
        <mxCell id="oT1v5HtR9lcozDzWwf_d-88" value="" style="shape=partialRectangle;connectable=0;fillColor=none;top=0;left=0;bottom=0;right=0;editable=1;overflow=hidden;whiteSpace=wrap;html=1;" vertex="1" parent="oT1v5HtR9lcozDzWwf_d-87">
          <mxGeometry width="30" height="30" as="geometry">
            <mxRectangle width="30" height="30" as="alternateBounds" />
          </mxGeometry>
        </mxCell>
        <mxCell id="oT1v5HtR9lcozDzWwf_d-89" value="&lt;span style=&quot;text-wrap-mode: nowrap;&quot;&gt;duration_s&lt;/span&gt;" style="shape=partialRectangle;connectable=0;fillColor=none;top=0;left=0;bottom=0;right=0;align=left;spacingLeft=6;overflow=hidden;whiteSpace=wrap;html=1;" vertex="1" parent="oT1v5HtR9lcozDzWwf_d-87">
          <mxGeometry x="30" width="150" height="30" as="geometry">
            <mxRectangle width="150" height="30" as="alternateBounds" />
          </mxGeometry>
        </mxCell>
        <mxCell id="oT1v5HtR9lcozDzWwf_d-90" value="" style="shape=tableRow;horizontal=0;startSize=0;swimlaneHead=0;swimlaneBody=0;fillColor=none;collapsible=0;dropTarget=0;points=[[0,0.5],[1,0.5]];portConstraint=eastwest;top=0;left=0;right=0;bottom=0;" vertex="1" parent="oT1v5HtR9lcozDzWwf_d-49">
          <mxGeometry y="390" width="180" height="30" as="geometry" />
        </mxCell>
        <mxCell id="oT1v5HtR9lcozDzWwf_d-91" value="" style="shape=partialRectangle;connectable=0;fillColor=none;top=0;left=0;bottom=0;right=0;editable=1;overflow=hidden;whiteSpace=wrap;html=1;" vertex="1" parent="oT1v5HtR9lcozDzWwf_d-90">
          <mxGeometry width="30" height="30" as="geometry">
            <mxRectangle width="30" height="30" as="alternateBounds" />
          </mxGeometry>
        </mxCell>
        <mxCell id="oT1v5HtR9lcozDzWwf_d-92" value="&lt;span style=&quot;text-wrap-mode: nowrap;&quot;&gt;is_free&lt;/span&gt;" style="shape=partialRectangle;connectable=0;fillColor=none;top=0;left=0;bottom=0;right=0;align=left;spacingLeft=6;overflow=hidden;whiteSpace=wrap;html=1;" vertex="1" parent="oT1v5HtR9lcozDzWwf_d-90">
          <mxGeometry x="30" width="150" height="30" as="geometry">
            <mxRectangle width="150" height="30" as="alternateBounds" />
          </mxGeometry>
        </mxCell>
        <mxCell id="oT1v5HtR9lcozDzWwf_d-93" value="" style="shape=tableRow;horizontal=0;startSize=0;swimlaneHead=0;swimlaneBody=0;fillColor=none;collapsible=0;dropTarget=0;points=[[0,0.5],[1,0.5]];portConstraint=eastwest;top=0;left=0;right=0;bottom=0;" vertex="1" parent="oT1v5HtR9lcozDzWwf_d-49">
          <mxGeometry y="420" width="180" height="30" as="geometry" />
        </mxCell>
        <mxCell id="oT1v5HtR9lcozDzWwf_d-94" value="" style="shape=partialRectangle;connectable=0;fillColor=none;top=0;left=0;bottom=0;right=0;editable=1;overflow=hidden;whiteSpace=wrap;html=1;" vertex="1" parent="oT1v5HtR9lcozDzWwf_d-93">
          <mxGeometry width="30" height="30" as="geometry">
            <mxRectangle width="30" height="30" as="alternateBounds" />
          </mxGeometry>
        </mxCell>
        <mxCell id="oT1v5HtR9lcozDzWwf_d-95" value="&lt;span style=&quot;text-wrap-mode: nowrap;&quot;&gt;date&lt;/span&gt;" style="shape=partialRectangle;connectable=0;fillColor=none;top=0;left=0;bottom=0;right=0;align=left;spacingLeft=6;overflow=hidden;whiteSpace=wrap;html=1;" vertex="1" parent="oT1v5HtR9lcozDzWwf_d-93">
          <mxGeometry x="30" width="150" height="30" as="geometry">
            <mxRectangle width="150" height="30" as="alternateBounds" />
          </mxGeometry>
        </mxCell>
        <mxCell id="oT1v5HtR9lcozDzWwf_d-62" value="&lt;font style=&quot;font-size: 18px;&quot;&gt;Trips prepared for analysis&lt;/font&gt;" style="text;strokeColor=none;fillColor=none;spacingLeft=4;spacingRight=4;overflow=hidden;rotatable=0;points=[[0,0.5],[1,0.5]];portConstraint=eastwest;fontSize=12;whiteSpace=wrap;html=1;" vertex="1" parent="1">
          <mxGeometry x="70" y="340" width="240" height="30" as="geometry" />
        </mxCell>
        <mxCell id="oT1v5HtR9lcozDzWwf_d-96" value="" style="endArrow=none;html=1;rounded=0;" edge="1" parent="1">
          <mxGeometry relative="1" as="geometry">
            <mxPoint x="85" y="880" as="sourcePoint" />
            <mxPoint x="845" y="880" as="targetPoint" />
          </mxGeometry>
        </mxCell>
        <mxCell id="oT1v5HtR9lcozDzWwf_d-97" value="1" style="resizable=0;html=1;whiteSpace=wrap;align=right;verticalAlign=bottom;" connectable="0" vertex="1" parent="oT1v5HtR9lcozDzWwf_d-96">
          <mxGeometry x="1" relative="1" as="geometry" />
        </mxCell>
        <mxCell id="oT1v5HtR9lcozDzWwf_d-98" value="&lt;font style=&quot;font-size: 18px;&quot;&gt;Daily trips statistics by user age&lt;/font&gt;" style="text;strokeColor=none;fillColor=none;spacingLeft=4;spacingRight=4;overflow=hidden;rotatable=0;points=[[0,0.5],[1,0.5]];portConstraint=eastwest;fontSize=12;whiteSpace=wrap;html=1;" vertex="1" parent="1">
          <mxGeometry x="75" y="900" width="275" height="30" as="geometry" />
        </mxCell>
        <mxCell id="oT1v5HtR9lcozDzWwf_d-99" value="trips_age_daily" style="shape=table;startSize=30;container=1;collapsible=1;childLayout=tableLayout;fixedRows=1;rowLines=0;fontStyle=1;align=center;resizeLast=1;html=1;" vertex="1" parent="1">
          <mxGeometry x="80" y="950" width="210" height="150" as="geometry" />
        </mxCell>
        <mxCell id="oT1v5HtR9lcozDzWwf_d-100" value="" style="shape=tableRow;horizontal=0;startSize=0;swimlaneHead=0;swimlaneBody=0;fillColor=none;collapsible=0;dropTarget=0;points=[[0,0.5],[1,0.5]];portConstraint=eastwest;top=0;left=0;right=0;bottom=1;" vertex="1" parent="oT1v5HtR9lcozDzWwf_d-99">
          <mxGeometry y="30" width="210" height="30" as="geometry" />
        </mxCell>
        <mxCell id="oT1v5HtR9lcozDzWwf_d-101" value="" style="shape=partialRectangle;connectable=0;fillColor=none;top=0;left=0;bottom=0;right=0;fontStyle=1;overflow=hidden;whiteSpace=wrap;html=1;" vertex="1" parent="oT1v5HtR9lcozDzWwf_d-100">
          <mxGeometry width="30" height="30" as="geometry">
            <mxRectangle width="30" height="30" as="alternateBounds" />
          </mxGeometry>
        </mxCell>
        <mxCell id="oT1v5HtR9lcozDzWwf_d-102" value="&quot;date&quot; date NULL" style="shape=partialRectangle;connectable=0;fillColor=none;top=0;left=0;bottom=0;right=0;align=left;spacingLeft=6;fontStyle=5;overflow=hidden;whiteSpace=wrap;html=1;" vertex="1" parent="oT1v5HtR9lcozDzWwf_d-100">
          <mxGeometry x="30" width="180" height="30" as="geometry">
            <mxRectangle width="180" height="30" as="alternateBounds" />
          </mxGeometry>
        </mxCell>
        <mxCell id="oT1v5HtR9lcozDzWwf_d-103" value="" style="shape=tableRow;horizontal=0;startSize=0;swimlaneHead=0;swimlaneBody=0;fillColor=none;collapsible=0;dropTarget=0;points=[[0,0.5],[1,0.5]];portConstraint=eastwest;top=0;left=0;right=0;bottom=0;" vertex="1" parent="oT1v5HtR9lcozDzWwf_d-99">
          <mxGeometry y="60" width="210" height="30" as="geometry" />
        </mxCell>
        <mxCell id="oT1v5HtR9lcozDzWwf_d-104" value="" style="shape=partialRectangle;connectable=0;fillColor=none;top=0;left=0;bottom=0;right=0;editable=1;overflow=hidden;whiteSpace=wrap;html=1;" vertex="1" parent="oT1v5HtR9lcozDzWwf_d-103">
          <mxGeometry width="30" height="30" as="geometry">
            <mxRectangle width="30" height="30" as="alternateBounds" />
          </mxGeometry>
        </mxCell>
        <mxCell id="oT1v5HtR9lcozDzWwf_d-105" value="age numeric NULL" style="shape=partialRectangle;connectable=0;fillColor=none;top=0;left=0;bottom=0;right=0;align=left;spacingLeft=6;overflow=hidden;whiteSpace=wrap;html=1;" vertex="1" parent="oT1v5HtR9lcozDzWwf_d-103">
          <mxGeometry x="30" width="180" height="30" as="geometry">
            <mxRectangle width="180" height="30" as="alternateBounds" />
          </mxGeometry>
        </mxCell>
        <mxCell id="oT1v5HtR9lcozDzWwf_d-106" value="" style="shape=tableRow;horizontal=0;startSize=0;swimlaneHead=0;swimlaneBody=0;fillColor=none;collapsible=0;dropTarget=0;points=[[0,0.5],[1,0.5]];portConstraint=eastwest;top=0;left=0;right=0;bottom=0;" vertex="1" parent="oT1v5HtR9lcozDzWwf_d-99">
          <mxGeometry y="90" width="210" height="30" as="geometry" />
        </mxCell>
        <mxCell id="oT1v5HtR9lcozDzWwf_d-107" value="" style="shape=partialRectangle;connectable=0;fillColor=none;top=0;left=0;bottom=0;right=0;editable=1;overflow=hidden;whiteSpace=wrap;html=1;" vertex="1" parent="oT1v5HtR9lcozDzWwf_d-106">
          <mxGeometry width="30" height="30" as="geometry">
            <mxRectangle width="30" height="30" as="alternateBounds" />
          </mxGeometry>
        </mxCell>
        <mxCell id="oT1v5HtR9lcozDzWwf_d-108" value="trips int8 NULL" style="shape=partialRectangle;connectable=0;fillColor=none;top=0;left=0;bottom=0;right=0;align=left;spacingLeft=6;overflow=hidden;whiteSpace=wrap;html=1;" vertex="1" parent="oT1v5HtR9lcozDzWwf_d-106">
          <mxGeometry x="30" width="180" height="30" as="geometry">
            <mxRectangle width="180" height="30" as="alternateBounds" />
          </mxGeometry>
        </mxCell>
        <mxCell id="oT1v5HtR9lcozDzWwf_d-109" value="" style="shape=tableRow;horizontal=0;startSize=0;swimlaneHead=0;swimlaneBody=0;fillColor=none;collapsible=0;dropTarget=0;points=[[0,0.5],[1,0.5]];portConstraint=eastwest;top=0;left=0;right=0;bottom=0;" vertex="1" parent="oT1v5HtR9lcozDzWwf_d-99">
          <mxGeometry y="120" width="210" height="30" as="geometry" />
        </mxCell>
        <mxCell id="oT1v5HtR9lcozDzWwf_d-110" value="" style="shape=partialRectangle;connectable=0;fillColor=none;top=0;left=0;bottom=0;right=0;editable=1;overflow=hidden;whiteSpace=wrap;html=1;" vertex="1" parent="oT1v5HtR9lcozDzWwf_d-109">
          <mxGeometry width="30" height="30" as="geometry">
            <mxRectangle width="30" height="30" as="alternateBounds" />
          </mxGeometry>
        </mxCell>
        <mxCell id="oT1v5HtR9lcozDzWwf_d-111" value="revenue_rub numeric NULL" style="shape=partialRectangle;connectable=0;fillColor=none;top=0;left=0;bottom=0;right=0;align=left;spacingLeft=6;overflow=hidden;whiteSpace=wrap;html=1;" vertex="1" parent="oT1v5HtR9lcozDzWwf_d-109">
          <mxGeometry x="30" width="180" height="30" as="geometry">
            <mxRectangle width="180" height="30" as="alternateBounds" />
          </mxGeometry>
        </mxCell>
        <mxCell id="oT1v5HtR9lcozDzWwf_d-112" value="&lt;div style=&quot;color: rgb(187, 187, 187); background-color: rgb(43, 43, 43); font-family: Menlo, Monaco, &amp;quot;Courier New&amp;quot;, monospace; line-height: 18px; white-space: pre;&quot;&gt;&lt;div&gt;&lt;span style=&quot;color: #cc7832;&quot;&gt;with&lt;/span&gt;&lt;/div&gt;&lt;div&gt;&lt;span style=&quot;color: #a9b7c6;&quot;&gt;date_age_cte &lt;/span&gt;&lt;span style=&quot;color: #cc7832;&quot;&gt;as&lt;/span&gt;&lt;span style=&quot;color: #a9b7c6;&quot;&gt; (&lt;/span&gt;&lt;/div&gt;&lt;div&gt;&lt;span style=&quot;color: #a9b7c6;&quot;&gt;    &lt;/span&gt;&lt;span style=&quot;color: #cc7832;&quot;&gt;select&lt;/span&gt;&lt;/div&gt;&lt;div&gt;&lt;span style=&quot;color: #a9b7c6;&quot;&gt;        t.*,&lt;/span&gt;&lt;/div&gt;&lt;div&gt;&lt;span style=&quot;color: #a9b7c6;&quot;&gt;        extract(&lt;/span&gt;&lt;span style=&quot;color: #cc7832;&quot;&gt;year&lt;/span&gt;&lt;span style=&quot;color: #a9b7c6;&quot;&gt; &lt;/span&gt;&lt;span style=&quot;color: #cc7832;&quot;&gt;from&lt;/span&gt;&lt;span style=&quot;color: #a9b7c6;&quot;&gt; t.started_at) - extract(&lt;/span&gt;&lt;span style=&quot;color: #cc7832;&quot;&gt;year&lt;/span&gt;&lt;span style=&quot;color: #a9b7c6;&quot;&gt; &lt;/span&gt;&lt;span style=&quot;color: #cc7832;&quot;&gt;from&lt;/span&gt;&lt;span style=&quot;color: #a9b7c6;&quot;&gt; u.birth_date) &lt;/span&gt;&lt;span style=&quot;color: #cc7832;&quot;&gt;as&lt;/span&gt;&lt;span style=&quot;color: #a9b7c6;&quot;&gt; age&lt;/span&gt;&lt;/div&gt;&lt;div&gt;&lt;span style=&quot;color: #a9b7c6;&quot;&gt;    &lt;/span&gt;&lt;span style=&quot;color: #cc7832;&quot;&gt;from&lt;/span&gt;&lt;/div&gt;&lt;div&gt;&lt;span style=&quot;color: #a9b7c6;&quot;&gt;        {{ ref(&lt;/span&gt;&lt;span style=&quot;color: #6a8759;&quot;&gt;&quot;trips_prep&quot;&lt;/span&gt;&lt;span style=&quot;color: #a9b7c6;&quot;&gt;) }} &lt;/span&gt;&lt;span style=&quot;color: #cc7832;&quot;&gt;as&lt;/span&gt;&lt;span style=&quot;color: #a9b7c6;&quot;&gt; t&lt;/span&gt;&lt;/div&gt;&lt;div&gt;&lt;span style=&quot;color: #a9b7c6;&quot;&gt;    &lt;/span&gt;&lt;span style=&quot;color: #cc7832;&quot;&gt;inner join&lt;/span&gt;&lt;/div&gt;&lt;div&gt;&lt;span style=&quot;color: #a9b7c6;&quot;&gt;        {{ source(&lt;/span&gt;&lt;span style=&quot;color: #6a8759;&quot;&gt;&quot;scooters_raw&quot;&lt;/span&gt;&lt;span style=&quot;color: #a9b7c6;&quot;&gt;, &lt;/span&gt;&lt;span style=&quot;color: #6a8759;&quot;&gt;&quot;users&quot;&lt;/span&gt;&lt;span style=&quot;color: #a9b7c6;&quot;&gt;) }} &lt;/span&gt;&lt;span style=&quot;color: #cc7832;&quot;&gt;as&lt;/span&gt;&lt;span style=&quot;color: #a9b7c6;&quot;&gt; u&lt;/span&gt;&lt;/div&gt;&lt;div&gt;&lt;span style=&quot;color: #a9b7c6;&quot;&gt;        &lt;/span&gt;&lt;span style=&quot;color: #cc7832;&quot;&gt;on&lt;/span&gt;&lt;span style=&quot;color: #a9b7c6;&quot;&gt; t.user_id = u.id&lt;/span&gt;&lt;/div&gt;&lt;div&gt;&lt;span style=&quot;color: #a9b7c6;&quot;&gt;)&lt;/span&gt;&lt;/div&gt;&lt;div&gt;&lt;span style=&quot;color: #cc7832;&quot;&gt;select&lt;/span&gt;&lt;/div&gt;&lt;div&gt;&lt;span style=&quot;color: #a9b7c6;&quot;&gt;    &lt;/span&gt;&lt;span style=&quot;color: #6a8759;&quot;&gt;&quot;date&quot;&lt;/span&gt;&lt;span style=&quot;color: #a9b7c6;&quot;&gt;,&lt;/span&gt;&lt;/div&gt;&lt;div&gt;&lt;span style=&quot;color: #a9b7c6;&quot;&gt;    age,&lt;/span&gt;&lt;/div&gt;&lt;div&gt;&lt;span style=&quot;color: #a9b7c6;&quot;&gt;    count(*) &lt;/span&gt;&lt;span style=&quot;color: #cc7832;&quot;&gt;as&lt;/span&gt;&lt;span style=&quot;color: #a9b7c6;&quot;&gt; trips,&lt;/span&gt;&lt;/div&gt;&lt;div&gt;&lt;span style=&quot;color: #a9b7c6;&quot;&gt;    sum(price_rub) &lt;/span&gt;&lt;span style=&quot;color: #cc7832;&quot;&gt;as&lt;/span&gt;&lt;span style=&quot;color: #a9b7c6;&quot;&gt; revenue_rub&lt;/span&gt;&lt;/div&gt;&lt;div&gt;&lt;span style=&quot;color: #cc7832;&quot;&gt;from&lt;/span&gt;&lt;/div&gt;&lt;div&gt;&lt;span style=&quot;color: #a9b7c6;&quot;&gt;    date_age_cte&lt;/span&gt;&lt;/div&gt;&lt;div&gt;&lt;span style=&quot;color: #cc7832;&quot;&gt;group by&lt;/span&gt;&lt;/div&gt;&lt;div&gt;&lt;span style=&quot;color: #a9b7c6;&quot;&gt;    &lt;/span&gt;&lt;span style=&quot;color: #6897bb;&quot;&gt;1&lt;/span&gt;&lt;span style=&quot;color: #a9b7c6;&quot;&gt;,&lt;/span&gt;&lt;/div&gt;&lt;div&gt;&lt;span style=&quot;color: #a9b7c6;&quot;&gt;    &lt;/span&gt;&lt;span style=&quot;color: #6897bb;&quot;&gt;2&lt;/span&gt;&lt;/div&gt;&lt;/div&gt;" style="text;strokeColor=none;fillColor=none;spacingLeft=4;spacingRight=4;overflow=hidden;rotatable=0;points=[[0,0.5],[1,0.5]];portConstraint=eastwest;fontSize=12;whiteSpace=wrap;html=1;" vertex="1" parent="1">
          <mxGeometry x="350" y="940" width="630" height="420" as="geometry" />
        </mxCell>
        <mxCell id="oT1v5HtR9lcozDzWwf_d-113" value="&lt;div style=&quot;color: rgb(187, 187, 187); background-color: rgb(43, 43, 43); font-family: Menlo, Monaco, &amp;quot;Courier New&amp;quot;, monospace; line-height: 18px; white-space: pre;&quot;&gt;&lt;div&gt;&lt;span style=&quot;color: #cc7832;&quot;&gt;select&lt;/span&gt;&lt;/div&gt;&lt;div&gt;&lt;span style=&quot;color: #a9b7c6;&quot;&gt;    id,&lt;/span&gt;&lt;/div&gt;&lt;div&gt;&lt;span style=&quot;color: #a9b7c6;&quot;&gt;    user_id,&lt;/span&gt;&lt;/div&gt;&lt;div&gt;&lt;span style=&quot;color: #a9b7c6;&quot;&gt;    scooter_hw_id,&lt;/span&gt;&lt;/div&gt;&lt;div&gt;&lt;span style=&quot;color: #a9b7c6;&quot;&gt;    started_at,&lt;/span&gt;&lt;/div&gt;&lt;div&gt;&lt;span style=&quot;color: #a9b7c6;&quot;&gt;    finished_at,&lt;/span&gt;&lt;/div&gt;&lt;div&gt;&lt;span style=&quot;color: #a9b7c6;&quot;&gt;    start_lat,&lt;/span&gt;&lt;/div&gt;&lt;div&gt;&lt;span style=&quot;color: #a9b7c6;&quot;&gt;    start_lon,&lt;/span&gt;&lt;/div&gt;&lt;div&gt;&lt;span style=&quot;color: #a9b7c6;&quot;&gt;    finish_lat,&lt;/span&gt;&lt;/div&gt;&lt;div&gt;&lt;span style=&quot;color: #a9b7c6;&quot;&gt;    finish_lon,&lt;/span&gt;&lt;/div&gt;&lt;div&gt;&lt;span style=&quot;color: #a9b7c6;&quot;&gt;    distance &lt;/span&gt;&lt;span style=&quot;color: #cc7832;&quot;&gt;as&lt;/span&gt;&lt;span style=&quot;color: #a9b7c6;&quot;&gt; distance_m,&lt;/span&gt;&lt;/div&gt;&lt;div&gt;&lt;span style=&quot;color: #a9b7c6;&quot;&gt;    cast(price &lt;/span&gt;&lt;span style=&quot;color: #cc7832;&quot;&gt;as&lt;/span&gt;&lt;span style=&quot;color: #a9b7c6;&quot;&gt; decimal(&lt;/span&gt;&lt;span style=&quot;color: #6897bb;&quot;&gt;20&lt;/span&gt;&lt;span style=&quot;color: #a9b7c6;&quot;&gt;, &lt;/span&gt;&lt;span style=&quot;color: #6897bb;&quot;&gt;2&lt;/span&gt;&lt;span style=&quot;color: #a9b7c6;&quot;&gt;)) / &lt;/span&gt;&lt;span style=&quot;color: #6897bb;&quot;&gt;100&lt;/span&gt;&lt;span style=&quot;color: #a9b7c6;&quot;&gt; &lt;/span&gt;&lt;span style=&quot;color: #cc7832;&quot;&gt;as&lt;/span&gt;&lt;span style=&quot;color: #a9b7c6;&quot;&gt; price_rub,&lt;/span&gt;&lt;/div&gt;&lt;div&gt;&lt;span style=&quot;color: #a9b7c6;&quot;&gt;    extract(epoch &lt;/span&gt;&lt;span style=&quot;color: #cc7832;&quot;&gt;from&lt;/span&gt;&lt;span style=&quot;color: #a9b7c6;&quot;&gt; (finished_at - started_at)) &lt;/span&gt;&lt;span style=&quot;color: #cc7832;&quot;&gt;as&lt;/span&gt;&lt;span style=&quot;color: #a9b7c6;&quot;&gt; duration_s,&lt;/span&gt;&lt;/div&gt;&lt;div&gt;&lt;span style=&quot;color: #a9b7c6;&quot;&gt;    finished_at &amp;lt;&amp;gt; started_at &lt;/span&gt;&lt;span style=&quot;color: #cc7832;&quot;&gt;and&lt;/span&gt;&lt;span style=&quot;color: #a9b7c6;&quot;&gt; price = &lt;/span&gt;&lt;span style=&quot;color: #6897bb;&quot;&gt;0&lt;/span&gt;&lt;span style=&quot;color: #a9b7c6;&quot;&gt; &lt;/span&gt;&lt;span style=&quot;color: #cc7832;&quot;&gt;as&lt;/span&gt;&lt;span style=&quot;color: #a9b7c6;&quot;&gt; is_free,&lt;/span&gt;&lt;/div&gt;&lt;div&gt;&lt;span style=&quot;color: #a9b7c6;&quot;&gt;    date(started_at) &lt;/span&gt;&lt;span style=&quot;color: #cc7832;&quot;&gt;as&lt;/span&gt;&lt;span style=&quot;color: #a9b7c6;&quot;&gt; &lt;/span&gt;&lt;span style=&quot;color: #6a8759;&quot;&gt;&quot;date&quot;&lt;/span&gt;&lt;/div&gt;&lt;div&gt;&lt;span style=&quot;color: #cc7832;&quot;&gt;from&lt;/span&gt;&lt;/div&gt;&lt;div&gt;&lt;span style=&quot;color: #a9b7c6;&quot;&gt;    {{ source(&lt;/span&gt;&lt;span style=&quot;color: #6a8759;&quot;&gt;&quot;scooters_raw&quot;&lt;/span&gt;&lt;span style=&quot;color: #a9b7c6;&quot;&gt;, &lt;/span&gt;&lt;span style=&quot;color: #6a8759;&quot;&gt;&quot;trips&quot;&lt;/span&gt;&lt;span style=&quot;color: #a9b7c6;&quot;&gt;) }}&lt;/span&gt;&lt;/div&gt;&lt;/div&gt;" style="text;strokeColor=none;fillColor=none;spacingLeft=4;spacingRight=4;overflow=hidden;rotatable=0;points=[[0,0.5],[1,0.5]];portConstraint=eastwest;fontSize=12;whiteSpace=wrap;html=1;" vertex="1" parent="1">
          <mxGeometry x="350" y="380" width="540" height="390" as="geometry" />
        </mxCell>
        <mxCell id="oT1v5HtR9lcozDzWwf_d-114" value="&lt;font style=&quot;font-size: 18px;&quot;&gt;Aggregation of daily trips statistics by user age&lt;/font&gt;" style="text;strokeColor=none;fillColor=none;spacingLeft=4;spacingRight=4;overflow=hidden;rotatable=0;points=[[0,0.5],[1,0.5]];portConstraint=eastwest;fontSize=12;whiteSpace=wrap;html=1;" vertex="1" parent="1">
          <mxGeometry x="80" y="1570" width="390" height="30" as="geometry" />
        </mxCell>
        <mxCell id="oT1v5HtR9lcozDzWwf_d-115" value="&lt;div style=&quot;color: rgb(187, 187, 187); background-color: rgb(43, 43, 43); font-family: Menlo, Monaco, &amp;quot;Courier New&amp;quot;, monospace; line-height: 18px; white-space: pre;&quot;&gt;&lt;div style=&quot;line-height: 18px;&quot;&gt;&lt;div&gt;&lt;span style=&quot;color: #cc7832;&quot;&gt;select&lt;/span&gt;&lt;/div&gt;&lt;div&gt;&lt;span style=&quot;color: #a9b7c6;&quot;&gt;    age,&lt;/span&gt;&lt;/div&gt;&lt;div&gt;&lt;span style=&quot;color: #a9b7c6;&quot;&gt;    avg(trips) &lt;/span&gt;&lt;span style=&quot;color: #cc7832;&quot;&gt;as&lt;/span&gt;&lt;span style=&quot;color: #a9b7c6;&quot;&gt; avg_trips,&lt;/span&gt;&lt;/div&gt;&lt;div&gt;&lt;span style=&quot;color: #a9b7c6;&quot;&gt;    avg(revenue_rub) &lt;/span&gt;&lt;span style=&quot;color: #cc7832;&quot;&gt;as&lt;/span&gt;&lt;span style=&quot;color: #a9b7c6;&quot;&gt; avg_revenue_rub&lt;/span&gt;&lt;/div&gt;&lt;div&gt;&lt;span style=&quot;color: #cc7832;&quot;&gt;from&lt;/span&gt;&lt;/div&gt;&lt;div&gt;&lt;span style=&quot;color: #a9b7c6;&quot;&gt;    {{ ref(&lt;/span&gt;&lt;span style=&quot;color: #6a8759;&quot;&gt;&quot;trips_age_daily&quot;&lt;/span&gt;&lt;span style=&quot;color: #a9b7c6;&quot;&gt;) }}&lt;/span&gt;&lt;/div&gt;&lt;div&gt;&lt;span style=&quot;color: #cc7832;&quot;&gt;group by&lt;/span&gt;&lt;/div&gt;&lt;div&gt;&lt;span style=&quot;color: #a9b7c6;&quot;&gt;    &lt;/span&gt;&lt;span style=&quot;color: #6897bb;&quot;&gt;1&lt;/span&gt;&lt;/div&gt;&lt;div&gt;&lt;span style=&quot;color: #cc7832;&quot;&gt;order by&lt;/span&gt;&lt;/div&gt;&lt;div&gt;&lt;span style=&quot;color: #a9b7c6;&quot;&gt;    &lt;/span&gt;&lt;span style=&quot;color: #6897bb;&quot;&gt;1&lt;/span&gt;&lt;/div&gt;&lt;/div&gt;&lt;/div&gt;" style="text;strokeColor=none;fillColor=none;spacingLeft=4;spacingRight=4;overflow=hidden;rotatable=0;points=[[0,0.5],[1,0.5]];portConstraint=eastwest;fontSize=12;whiteSpace=wrap;html=1;" vertex="1" parent="1">
          <mxGeometry x="350" y="1630" width="340" height="210" as="geometry" />
        </mxCell>
        <mxCell id="oT1v5HtR9lcozDzWwf_d-116" value="trips_age_daily_stat" style="shape=table;startSize=30;container=1;collapsible=1;childLayout=tableLayout;fixedRows=1;rowLines=0;fontStyle=1;align=center;resizeLast=1;html=1;" vertex="1" parent="1">
          <mxGeometry x="80" y="1630" width="250" height="120" as="geometry" />
        </mxCell>
        <mxCell id="oT1v5HtR9lcozDzWwf_d-117" value="" style="shape=tableRow;horizontal=0;startSize=0;swimlaneHead=0;swimlaneBody=0;fillColor=none;collapsible=0;dropTarget=0;points=[[0,0.5],[1,0.5]];portConstraint=eastwest;top=0;left=0;right=0;bottom=1;" vertex="1" parent="oT1v5HtR9lcozDzWwf_d-116">
          <mxGeometry y="30" width="250" height="30" as="geometry" />
        </mxCell>
        <mxCell id="oT1v5HtR9lcozDzWwf_d-118" value="" style="shape=partialRectangle;connectable=0;fillColor=none;top=0;left=0;bottom=0;right=0;fontStyle=1;overflow=hidden;whiteSpace=wrap;html=1;" vertex="1" parent="oT1v5HtR9lcozDzWwf_d-117">
          <mxGeometry width="30" height="30" as="geometry">
            <mxRectangle width="30" height="30" as="alternateBounds" />
          </mxGeometry>
        </mxCell>
        <mxCell id="oT1v5HtR9lcozDzWwf_d-119" value="age numeric NULL" style="shape=partialRectangle;connectable=0;fillColor=none;top=0;left=0;bottom=0;right=0;align=left;spacingLeft=6;fontStyle=5;overflow=hidden;whiteSpace=wrap;html=1;" vertex="1" parent="oT1v5HtR9lcozDzWwf_d-117">
          <mxGeometry x="30" width="220" height="30" as="geometry">
            <mxRectangle width="220" height="30" as="alternateBounds" />
          </mxGeometry>
        </mxCell>
        <mxCell id="oT1v5HtR9lcozDzWwf_d-120" value="" style="shape=tableRow;horizontal=0;startSize=0;swimlaneHead=0;swimlaneBody=0;fillColor=none;collapsible=0;dropTarget=0;points=[[0,0.5],[1,0.5]];portConstraint=eastwest;top=0;left=0;right=0;bottom=0;" vertex="1" parent="oT1v5HtR9lcozDzWwf_d-116">
          <mxGeometry y="60" width="250" height="30" as="geometry" />
        </mxCell>
        <mxCell id="oT1v5HtR9lcozDzWwf_d-121" value="" style="shape=partialRectangle;connectable=0;fillColor=none;top=0;left=0;bottom=0;right=0;editable=1;overflow=hidden;whiteSpace=wrap;html=1;" vertex="1" parent="oT1v5HtR9lcozDzWwf_d-120">
          <mxGeometry width="30" height="30" as="geometry">
            <mxRectangle width="30" height="30" as="alternateBounds" />
          </mxGeometry>
        </mxCell>
        <mxCell id="oT1v5HtR9lcozDzWwf_d-122" value="avg_trips numeric NULL" style="shape=partialRectangle;connectable=0;fillColor=none;top=0;left=0;bottom=0;right=0;align=left;spacingLeft=6;overflow=hidden;whiteSpace=wrap;html=1;" vertex="1" parent="oT1v5HtR9lcozDzWwf_d-120">
          <mxGeometry x="30" width="220" height="30" as="geometry">
            <mxRectangle width="220" height="30" as="alternateBounds" />
          </mxGeometry>
        </mxCell>
        <mxCell id="oT1v5HtR9lcozDzWwf_d-123" value="" style="shape=tableRow;horizontal=0;startSize=0;swimlaneHead=0;swimlaneBody=0;fillColor=none;collapsible=0;dropTarget=0;points=[[0,0.5],[1,0.5]];portConstraint=eastwest;top=0;left=0;right=0;bottom=0;" vertex="1" parent="oT1v5HtR9lcozDzWwf_d-116">
          <mxGeometry y="90" width="250" height="30" as="geometry" />
        </mxCell>
        <mxCell id="oT1v5HtR9lcozDzWwf_d-124" value="" style="shape=partialRectangle;connectable=0;fillColor=none;top=0;left=0;bottom=0;right=0;editable=1;overflow=hidden;whiteSpace=wrap;html=1;" vertex="1" parent="oT1v5HtR9lcozDzWwf_d-123">
          <mxGeometry width="30" height="30" as="geometry">
            <mxRectangle width="30" height="30" as="alternateBounds" />
          </mxGeometry>
        </mxCell>
        <mxCell id="oT1v5HtR9lcozDzWwf_d-125" value="avg_revenue_rub numeric NULL" style="shape=partialRectangle;connectable=0;fillColor=none;top=0;left=0;bottom=0;right=0;align=left;spacingLeft=6;overflow=hidden;whiteSpace=wrap;html=1;" vertex="1" parent="oT1v5HtR9lcozDzWwf_d-123">
          <mxGeometry x="30" width="220" height="30" as="geometry">
            <mxRectangle width="220" height="30" as="alternateBounds" />
          </mxGeometry>
        </mxCell>
        <mxCell id="oT1v5HtR9lcozDzWwf_d-129" value="" style="endArrow=none;html=1;rounded=0;" edge="1" parent="1">
          <mxGeometry relative="1" as="geometry">
            <mxPoint x="85" y="1850" as="sourcePoint" />
            <mxPoint x="845" y="1850" as="targetPoint" />
          </mxGeometry>
        </mxCell>
        <mxCell id="oT1v5HtR9lcozDzWwf_d-130" value="1" style="resizable=0;html=1;whiteSpace=wrap;align=right;verticalAlign=bottom;" connectable="0" vertex="1" parent="oT1v5HtR9lcozDzWwf_d-129">
          <mxGeometry x="1" relative="1" as="geometry" />
        </mxCell>
        <mxCell id="oT1v5HtR9lcozDzWwf_d-131" value="&lt;font style=&quot;font-size: 18px;&quot;&gt;Prepared trips enriched with users data&lt;/font&gt;" style="text;strokeColor=none;fillColor=none;spacingLeft=4;spacingRight=4;overflow=hidden;rotatable=0;points=[[0,0.5],[1,0.5]];portConstraint=eastwest;fontSize=12;whiteSpace=wrap;html=1;" vertex="1" parent="1">
          <mxGeometry x="75" y="1870" width="345" height="30" as="geometry" />
        </mxCell>
        <mxCell id="oT1v5HtR9lcozDzWwf_d-132" value="trips_users" style="shape=table;startSize=30;container=1;collapsible=1;childLayout=tableLayout;fixedRows=1;rowLines=0;fontStyle=1;align=center;resizeLast=1;html=1;" vertex="1" parent="1">
          <mxGeometry x="80" y="1930" width="180" height="570" as="geometry" />
        </mxCell>
        <mxCell id="oT1v5HtR9lcozDzWwf_d-133" value="" style="shape=tableRow;horizontal=0;startSize=0;swimlaneHead=0;swimlaneBody=0;fillColor=none;collapsible=0;dropTarget=0;points=[[0,0.5],[1,0.5]];portConstraint=eastwest;top=0;left=0;right=0;bottom=1;" vertex="1" parent="oT1v5HtR9lcozDzWwf_d-132">
          <mxGeometry y="30" width="180" height="30" as="geometry" />
        </mxCell>
        <mxCell id="oT1v5HtR9lcozDzWwf_d-134" value="PK" style="shape=partialRectangle;connectable=0;fillColor=none;top=0;left=0;bottom=0;right=0;fontStyle=1;overflow=hidden;whiteSpace=wrap;html=1;" vertex="1" parent="oT1v5HtR9lcozDzWwf_d-133">
          <mxGeometry width="30" height="30" as="geometry">
            <mxRectangle width="30" height="30" as="alternateBounds" />
          </mxGeometry>
        </mxCell>
        <mxCell id="oT1v5HtR9lcozDzWwf_d-135" value="id" style="shape=partialRectangle;connectable=0;fillColor=none;top=0;left=0;bottom=0;right=0;align=left;spacingLeft=6;fontStyle=5;overflow=hidden;whiteSpace=wrap;html=1;" vertex="1" parent="oT1v5HtR9lcozDzWwf_d-133">
          <mxGeometry x="30" width="150" height="30" as="geometry">
            <mxRectangle width="150" height="30" as="alternateBounds" />
          </mxGeometry>
        </mxCell>
        <mxCell id="oT1v5HtR9lcozDzWwf_d-136" value="" style="shape=tableRow;horizontal=0;startSize=0;swimlaneHead=0;swimlaneBody=0;fillColor=none;collapsible=0;dropTarget=0;points=[[0,0.5],[1,0.5]];portConstraint=eastwest;top=0;left=0;right=0;bottom=0;" vertex="1" parent="oT1v5HtR9lcozDzWwf_d-132">
          <mxGeometry y="60" width="180" height="30" as="geometry" />
        </mxCell>
        <mxCell id="oT1v5HtR9lcozDzWwf_d-137" value="" style="shape=partialRectangle;connectable=0;fillColor=none;top=0;left=0;bottom=0;right=0;editable=1;overflow=hidden;whiteSpace=wrap;html=1;" vertex="1" parent="oT1v5HtR9lcozDzWwf_d-136">
          <mxGeometry width="30" height="30" as="geometry">
            <mxRectangle width="30" height="30" as="alternateBounds" />
          </mxGeometry>
        </mxCell>
        <mxCell id="oT1v5HtR9lcozDzWwf_d-138" value="&lt;span style=&quot;text-wrap-mode: nowrap;&quot;&gt;user_id&lt;/span&gt;" style="shape=partialRectangle;connectable=0;fillColor=none;top=0;left=0;bottom=0;right=0;align=left;spacingLeft=6;overflow=hidden;whiteSpace=wrap;html=1;" vertex="1" parent="oT1v5HtR9lcozDzWwf_d-136">
          <mxGeometry x="30" width="150" height="30" as="geometry">
            <mxRectangle width="150" height="30" as="alternateBounds" />
          </mxGeometry>
        </mxCell>
        <mxCell id="oT1v5HtR9lcozDzWwf_d-139" value="" style="shape=tableRow;horizontal=0;startSize=0;swimlaneHead=0;swimlaneBody=0;fillColor=none;collapsible=0;dropTarget=0;points=[[0,0.5],[1,0.5]];portConstraint=eastwest;top=0;left=0;right=0;bottom=0;" vertex="1" parent="oT1v5HtR9lcozDzWwf_d-132">
          <mxGeometry y="90" width="180" height="30" as="geometry" />
        </mxCell>
        <mxCell id="oT1v5HtR9lcozDzWwf_d-140" value="" style="shape=partialRectangle;connectable=0;fillColor=none;top=0;left=0;bottom=0;right=0;editable=1;overflow=hidden;whiteSpace=wrap;html=1;" vertex="1" parent="oT1v5HtR9lcozDzWwf_d-139">
          <mxGeometry width="30" height="30" as="geometry">
            <mxRectangle width="30" height="30" as="alternateBounds" />
          </mxGeometry>
        </mxCell>
        <mxCell id="oT1v5HtR9lcozDzWwf_d-141" value="&lt;span style=&quot;text-wrap-mode: nowrap;&quot;&gt;scooter_hw_id&lt;/span&gt;" style="shape=partialRectangle;connectable=0;fillColor=none;top=0;left=0;bottom=0;right=0;align=left;spacingLeft=6;overflow=hidden;whiteSpace=wrap;html=1;" vertex="1" parent="oT1v5HtR9lcozDzWwf_d-139">
          <mxGeometry x="30" width="150" height="30" as="geometry">
            <mxRectangle width="150" height="30" as="alternateBounds" />
          </mxGeometry>
        </mxCell>
        <mxCell id="oT1v5HtR9lcozDzWwf_d-142" value="" style="shape=tableRow;horizontal=0;startSize=0;swimlaneHead=0;swimlaneBody=0;fillColor=none;collapsible=0;dropTarget=0;points=[[0,0.5],[1,0.5]];portConstraint=eastwest;top=0;left=0;right=0;bottom=0;" vertex="1" parent="oT1v5HtR9lcozDzWwf_d-132">
          <mxGeometry y="120" width="180" height="30" as="geometry" />
        </mxCell>
        <mxCell id="oT1v5HtR9lcozDzWwf_d-143" value="" style="shape=partialRectangle;connectable=0;fillColor=none;top=0;left=0;bottom=0;right=0;editable=1;overflow=hidden;whiteSpace=wrap;html=1;" vertex="1" parent="oT1v5HtR9lcozDzWwf_d-142">
          <mxGeometry width="30" height="30" as="geometry">
            <mxRectangle width="30" height="30" as="alternateBounds" />
          </mxGeometry>
        </mxCell>
        <mxCell id="oT1v5HtR9lcozDzWwf_d-144" value="&lt;span style=&quot;text-wrap-mode: nowrap;&quot;&gt;started_at&lt;/span&gt;" style="shape=partialRectangle;connectable=0;fillColor=none;top=0;left=0;bottom=0;right=0;align=left;spacingLeft=6;overflow=hidden;whiteSpace=wrap;html=1;" vertex="1" parent="oT1v5HtR9lcozDzWwf_d-142">
          <mxGeometry x="30" width="150" height="30" as="geometry">
            <mxRectangle width="150" height="30" as="alternateBounds" />
          </mxGeometry>
        </mxCell>
        <mxCell id="oT1v5HtR9lcozDzWwf_d-145" value="" style="shape=tableRow;horizontal=0;startSize=0;swimlaneHead=0;swimlaneBody=0;fillColor=none;collapsible=0;dropTarget=0;points=[[0,0.5],[1,0.5]];portConstraint=eastwest;top=0;left=0;right=0;bottom=0;" vertex="1" parent="oT1v5HtR9lcozDzWwf_d-132">
          <mxGeometry y="150" width="180" height="30" as="geometry" />
        </mxCell>
        <mxCell id="oT1v5HtR9lcozDzWwf_d-146" value="" style="shape=partialRectangle;connectable=0;fillColor=none;top=0;left=0;bottom=0;right=0;editable=1;overflow=hidden;whiteSpace=wrap;html=1;" vertex="1" parent="oT1v5HtR9lcozDzWwf_d-145">
          <mxGeometry width="30" height="30" as="geometry">
            <mxRectangle width="30" height="30" as="alternateBounds" />
          </mxGeometry>
        </mxCell>
        <mxCell id="oT1v5HtR9lcozDzWwf_d-147" value="&lt;span style=&quot;text-wrap-mode: nowrap;&quot;&gt;finished_at&lt;/span&gt;" style="shape=partialRectangle;connectable=0;fillColor=none;top=0;left=0;bottom=0;right=0;align=left;spacingLeft=6;overflow=hidden;whiteSpace=wrap;html=1;" vertex="1" parent="oT1v5HtR9lcozDzWwf_d-145">
          <mxGeometry x="30" width="150" height="30" as="geometry">
            <mxRectangle width="150" height="30" as="alternateBounds" />
          </mxGeometry>
        </mxCell>
        <mxCell id="oT1v5HtR9lcozDzWwf_d-148" value="" style="shape=tableRow;horizontal=0;startSize=0;swimlaneHead=0;swimlaneBody=0;fillColor=none;collapsible=0;dropTarget=0;points=[[0,0.5],[1,0.5]];portConstraint=eastwest;top=0;left=0;right=0;bottom=0;" vertex="1" parent="oT1v5HtR9lcozDzWwf_d-132">
          <mxGeometry y="180" width="180" height="30" as="geometry" />
        </mxCell>
        <mxCell id="oT1v5HtR9lcozDzWwf_d-149" value="" style="shape=partialRectangle;connectable=0;fillColor=none;top=0;left=0;bottom=0;right=0;editable=1;overflow=hidden;whiteSpace=wrap;html=1;" vertex="1" parent="oT1v5HtR9lcozDzWwf_d-148">
          <mxGeometry width="30" height="30" as="geometry">
            <mxRectangle width="30" height="30" as="alternateBounds" />
          </mxGeometry>
        </mxCell>
        <mxCell id="oT1v5HtR9lcozDzWwf_d-150" value="&lt;span style=&quot;text-wrap-mode: nowrap;&quot;&gt;start_lat&lt;/span&gt;" style="shape=partialRectangle;connectable=0;fillColor=none;top=0;left=0;bottom=0;right=0;align=left;spacingLeft=6;overflow=hidden;whiteSpace=wrap;html=1;" vertex="1" parent="oT1v5HtR9lcozDzWwf_d-148">
          <mxGeometry x="30" width="150" height="30" as="geometry">
            <mxRectangle width="150" height="30" as="alternateBounds" />
          </mxGeometry>
        </mxCell>
        <mxCell id="oT1v5HtR9lcozDzWwf_d-151" value="" style="shape=tableRow;horizontal=0;startSize=0;swimlaneHead=0;swimlaneBody=0;fillColor=none;collapsible=0;dropTarget=0;points=[[0,0.5],[1,0.5]];portConstraint=eastwest;top=0;left=0;right=0;bottom=0;" vertex="1" parent="oT1v5HtR9lcozDzWwf_d-132">
          <mxGeometry y="210" width="180" height="30" as="geometry" />
        </mxCell>
        <mxCell id="oT1v5HtR9lcozDzWwf_d-152" value="" style="shape=partialRectangle;connectable=0;fillColor=none;top=0;left=0;bottom=0;right=0;editable=1;overflow=hidden;whiteSpace=wrap;html=1;" vertex="1" parent="oT1v5HtR9lcozDzWwf_d-151">
          <mxGeometry width="30" height="30" as="geometry">
            <mxRectangle width="30" height="30" as="alternateBounds" />
          </mxGeometry>
        </mxCell>
        <mxCell id="oT1v5HtR9lcozDzWwf_d-153" value="&lt;span style=&quot;text-wrap-mode: nowrap;&quot;&gt;start_lon&lt;/span&gt;" style="shape=partialRectangle;connectable=0;fillColor=none;top=0;left=0;bottom=0;right=0;align=left;spacingLeft=6;overflow=hidden;whiteSpace=wrap;html=1;" vertex="1" parent="oT1v5HtR9lcozDzWwf_d-151">
          <mxGeometry x="30" width="150" height="30" as="geometry">
            <mxRectangle width="150" height="30" as="alternateBounds" />
          </mxGeometry>
        </mxCell>
        <mxCell id="oT1v5HtR9lcozDzWwf_d-154" value="" style="shape=tableRow;horizontal=0;startSize=0;swimlaneHead=0;swimlaneBody=0;fillColor=none;collapsible=0;dropTarget=0;points=[[0,0.5],[1,0.5]];portConstraint=eastwest;top=0;left=0;right=0;bottom=0;" vertex="1" parent="oT1v5HtR9lcozDzWwf_d-132">
          <mxGeometry y="240" width="180" height="30" as="geometry" />
        </mxCell>
        <mxCell id="oT1v5HtR9lcozDzWwf_d-155" value="" style="shape=partialRectangle;connectable=0;fillColor=none;top=0;left=0;bottom=0;right=0;editable=1;overflow=hidden;whiteSpace=wrap;html=1;" vertex="1" parent="oT1v5HtR9lcozDzWwf_d-154">
          <mxGeometry width="30" height="30" as="geometry">
            <mxRectangle width="30" height="30" as="alternateBounds" />
          </mxGeometry>
        </mxCell>
        <mxCell id="oT1v5HtR9lcozDzWwf_d-156" value="&lt;span style=&quot;text-wrap-mode: nowrap;&quot;&gt;finish_lat&lt;/span&gt;" style="shape=partialRectangle;connectable=0;fillColor=none;top=0;left=0;bottom=0;right=0;align=left;spacingLeft=6;overflow=hidden;whiteSpace=wrap;html=1;" vertex="1" parent="oT1v5HtR9lcozDzWwf_d-154">
          <mxGeometry x="30" width="150" height="30" as="geometry">
            <mxRectangle width="150" height="30" as="alternateBounds" />
          </mxGeometry>
        </mxCell>
        <mxCell id="oT1v5HtR9lcozDzWwf_d-157" value="" style="shape=tableRow;horizontal=0;startSize=0;swimlaneHead=0;swimlaneBody=0;fillColor=none;collapsible=0;dropTarget=0;points=[[0,0.5],[1,0.5]];portConstraint=eastwest;top=0;left=0;right=0;bottom=0;" vertex="1" parent="oT1v5HtR9lcozDzWwf_d-132">
          <mxGeometry y="270" width="180" height="30" as="geometry" />
        </mxCell>
        <mxCell id="oT1v5HtR9lcozDzWwf_d-158" value="" style="shape=partialRectangle;connectable=0;fillColor=none;top=0;left=0;bottom=0;right=0;editable=1;overflow=hidden;whiteSpace=wrap;html=1;" vertex="1" parent="oT1v5HtR9lcozDzWwf_d-157">
          <mxGeometry width="30" height="30" as="geometry">
            <mxRectangle width="30" height="30" as="alternateBounds" />
          </mxGeometry>
        </mxCell>
        <mxCell id="oT1v5HtR9lcozDzWwf_d-159" value="&lt;span style=&quot;text-wrap-mode: nowrap;&quot;&gt;finish_lon&lt;/span&gt;" style="shape=partialRectangle;connectable=0;fillColor=none;top=0;left=0;bottom=0;right=0;align=left;spacingLeft=6;overflow=hidden;whiteSpace=wrap;html=1;" vertex="1" parent="oT1v5HtR9lcozDzWwf_d-157">
          <mxGeometry x="30" width="150" height="30" as="geometry">
            <mxRectangle width="150" height="30" as="alternateBounds" />
          </mxGeometry>
        </mxCell>
        <mxCell id="oT1v5HtR9lcozDzWwf_d-160" value="" style="shape=tableRow;horizontal=0;startSize=0;swimlaneHead=0;swimlaneBody=0;fillColor=none;collapsible=0;dropTarget=0;points=[[0,0.5],[1,0.5]];portConstraint=eastwest;top=0;left=0;right=0;bottom=0;" vertex="1" parent="oT1v5HtR9lcozDzWwf_d-132">
          <mxGeometry y="300" width="180" height="30" as="geometry" />
        </mxCell>
        <mxCell id="oT1v5HtR9lcozDzWwf_d-161" value="" style="shape=partialRectangle;connectable=0;fillColor=none;top=0;left=0;bottom=0;right=0;editable=1;overflow=hidden;whiteSpace=wrap;html=1;" vertex="1" parent="oT1v5HtR9lcozDzWwf_d-160">
          <mxGeometry width="30" height="30" as="geometry">
            <mxRectangle width="30" height="30" as="alternateBounds" />
          </mxGeometry>
        </mxCell>
        <mxCell id="oT1v5HtR9lcozDzWwf_d-162" value="&lt;span style=&quot;text-wrap-mode: nowrap;&quot;&gt;distance_m&lt;/span&gt;" style="shape=partialRectangle;connectable=0;fillColor=none;top=0;left=0;bottom=0;right=0;align=left;spacingLeft=6;overflow=hidden;whiteSpace=wrap;html=1;" vertex="1" parent="oT1v5HtR9lcozDzWwf_d-160">
          <mxGeometry x="30" width="150" height="30" as="geometry">
            <mxRectangle width="150" height="30" as="alternateBounds" />
          </mxGeometry>
        </mxCell>
        <mxCell id="oT1v5HtR9lcozDzWwf_d-163" value="" style="shape=tableRow;horizontal=0;startSize=0;swimlaneHead=0;swimlaneBody=0;fillColor=none;collapsible=0;dropTarget=0;points=[[0,0.5],[1,0.5]];portConstraint=eastwest;top=0;left=0;right=0;bottom=0;" vertex="1" parent="oT1v5HtR9lcozDzWwf_d-132">
          <mxGeometry y="330" width="180" height="30" as="geometry" />
        </mxCell>
        <mxCell id="oT1v5HtR9lcozDzWwf_d-164" value="" style="shape=partialRectangle;connectable=0;fillColor=none;top=0;left=0;bottom=0;right=0;editable=1;overflow=hidden;whiteSpace=wrap;html=1;" vertex="1" parent="oT1v5HtR9lcozDzWwf_d-163">
          <mxGeometry width="30" height="30" as="geometry">
            <mxRectangle width="30" height="30" as="alternateBounds" />
          </mxGeometry>
        </mxCell>
        <mxCell id="oT1v5HtR9lcozDzWwf_d-165" value="&lt;span style=&quot;text-wrap-mode: nowrap;&quot;&gt;price_rub&lt;/span&gt;" style="shape=partialRectangle;connectable=0;fillColor=none;top=0;left=0;bottom=0;right=0;align=left;spacingLeft=6;overflow=hidden;whiteSpace=wrap;html=1;" vertex="1" parent="oT1v5HtR9lcozDzWwf_d-163">
          <mxGeometry x="30" width="150" height="30" as="geometry">
            <mxRectangle width="150" height="30" as="alternateBounds" />
          </mxGeometry>
        </mxCell>
        <mxCell id="oT1v5HtR9lcozDzWwf_d-166" value="" style="shape=tableRow;horizontal=0;startSize=0;swimlaneHead=0;swimlaneBody=0;fillColor=none;collapsible=0;dropTarget=0;points=[[0,0.5],[1,0.5]];portConstraint=eastwest;top=0;left=0;right=0;bottom=0;" vertex="1" parent="oT1v5HtR9lcozDzWwf_d-132">
          <mxGeometry y="360" width="180" height="30" as="geometry" />
        </mxCell>
        <mxCell id="oT1v5HtR9lcozDzWwf_d-167" value="" style="shape=partialRectangle;connectable=0;fillColor=none;top=0;left=0;bottom=0;right=0;editable=1;overflow=hidden;whiteSpace=wrap;html=1;" vertex="1" parent="oT1v5HtR9lcozDzWwf_d-166">
          <mxGeometry width="30" height="30" as="geometry">
            <mxRectangle width="30" height="30" as="alternateBounds" />
          </mxGeometry>
        </mxCell>
        <mxCell id="oT1v5HtR9lcozDzWwf_d-168" value="&lt;span style=&quot;text-wrap-mode: nowrap;&quot;&gt;duration_s&lt;/span&gt;" style="shape=partialRectangle;connectable=0;fillColor=none;top=0;left=0;bottom=0;right=0;align=left;spacingLeft=6;overflow=hidden;whiteSpace=wrap;html=1;" vertex="1" parent="oT1v5HtR9lcozDzWwf_d-166">
          <mxGeometry x="30" width="150" height="30" as="geometry">
            <mxRectangle width="150" height="30" as="alternateBounds" />
          </mxGeometry>
        </mxCell>
        <mxCell id="oT1v5HtR9lcozDzWwf_d-169" value="" style="shape=tableRow;horizontal=0;startSize=0;swimlaneHead=0;swimlaneBody=0;fillColor=none;collapsible=0;dropTarget=0;points=[[0,0.5],[1,0.5]];portConstraint=eastwest;top=0;left=0;right=0;bottom=0;" vertex="1" parent="oT1v5HtR9lcozDzWwf_d-132">
          <mxGeometry y="390" width="180" height="30" as="geometry" />
        </mxCell>
        <mxCell id="oT1v5HtR9lcozDzWwf_d-170" value="" style="shape=partialRectangle;connectable=0;fillColor=none;top=0;left=0;bottom=0;right=0;editable=1;overflow=hidden;whiteSpace=wrap;html=1;" vertex="1" parent="oT1v5HtR9lcozDzWwf_d-169">
          <mxGeometry width="30" height="30" as="geometry">
            <mxRectangle width="30" height="30" as="alternateBounds" />
          </mxGeometry>
        </mxCell>
        <mxCell id="oT1v5HtR9lcozDzWwf_d-171" value="&lt;span style=&quot;text-wrap-mode: nowrap;&quot;&gt;is_free&lt;/span&gt;" style="shape=partialRectangle;connectable=0;fillColor=none;top=0;left=0;bottom=0;right=0;align=left;spacingLeft=6;overflow=hidden;whiteSpace=wrap;html=1;" vertex="1" parent="oT1v5HtR9lcozDzWwf_d-169">
          <mxGeometry x="30" width="150" height="30" as="geometry">
            <mxRectangle width="150" height="30" as="alternateBounds" />
          </mxGeometry>
        </mxCell>
        <mxCell id="oT1v5HtR9lcozDzWwf_d-172" value="" style="shape=tableRow;horizontal=0;startSize=0;swimlaneHead=0;swimlaneBody=0;fillColor=none;collapsible=0;dropTarget=0;points=[[0,0.5],[1,0.5]];portConstraint=eastwest;top=0;left=0;right=0;bottom=0;" vertex="1" parent="oT1v5HtR9lcozDzWwf_d-132">
          <mxGeometry y="420" width="180" height="30" as="geometry" />
        </mxCell>
        <mxCell id="oT1v5HtR9lcozDzWwf_d-173" value="" style="shape=partialRectangle;connectable=0;fillColor=none;top=0;left=0;bottom=0;right=0;editable=1;overflow=hidden;whiteSpace=wrap;html=1;" vertex="1" parent="oT1v5HtR9lcozDzWwf_d-172">
          <mxGeometry width="30" height="30" as="geometry">
            <mxRectangle width="30" height="30" as="alternateBounds" />
          </mxGeometry>
        </mxCell>
        <mxCell id="oT1v5HtR9lcozDzWwf_d-174" value="&lt;span style=&quot;text-wrap-mode: nowrap;&quot;&gt;date&lt;/span&gt;" style="shape=partialRectangle;connectable=0;fillColor=none;top=0;left=0;bottom=0;right=0;align=left;spacingLeft=6;overflow=hidden;whiteSpace=wrap;html=1;" vertex="1" parent="oT1v5HtR9lcozDzWwf_d-172">
          <mxGeometry x="30" width="150" height="30" as="geometry">
            <mxRectangle width="150" height="30" as="alternateBounds" />
          </mxGeometry>
        </mxCell>
        <mxCell id="oT1v5HtR9lcozDzWwf_d-176" value="" style="shape=tableRow;horizontal=0;startSize=0;swimlaneHead=0;swimlaneBody=0;fillColor=none;collapsible=0;dropTarget=0;points=[[0,0.5],[1,0.5]];portConstraint=eastwest;top=0;left=0;right=0;bottom=0;" vertex="1" parent="oT1v5HtR9lcozDzWwf_d-132">
          <mxGeometry y="450" width="180" height="30" as="geometry" />
        </mxCell>
        <mxCell id="oT1v5HtR9lcozDzWwf_d-177" value="" style="shape=partialRectangle;connectable=0;fillColor=none;top=0;left=0;bottom=0;right=0;editable=1;overflow=hidden;whiteSpace=wrap;html=1;" vertex="1" parent="oT1v5HtR9lcozDzWwf_d-176">
          <mxGeometry width="30" height="30" as="geometry">
            <mxRectangle width="30" height="30" as="alternateBounds" />
          </mxGeometry>
        </mxCell>
        <mxCell id="oT1v5HtR9lcozDzWwf_d-178" value="&lt;span style=&quot;text-wrap-mode: nowrap;&quot;&gt;sex&lt;/span&gt;" style="shape=partialRectangle;connectable=0;fillColor=none;top=0;left=0;bottom=0;right=0;align=left;spacingLeft=6;overflow=hidden;whiteSpace=wrap;html=1;" vertex="1" parent="oT1v5HtR9lcozDzWwf_d-176">
          <mxGeometry x="30" width="150" height="30" as="geometry">
            <mxRectangle width="150" height="30" as="alternateBounds" />
          </mxGeometry>
        </mxCell>
        <mxCell id="oT1v5HtR9lcozDzWwf_d-179" value="" style="shape=tableRow;horizontal=0;startSize=0;swimlaneHead=0;swimlaneBody=0;fillColor=none;collapsible=0;dropTarget=0;points=[[0,0.5],[1,0.5]];portConstraint=eastwest;top=0;left=0;right=0;bottom=0;" vertex="1" parent="oT1v5HtR9lcozDzWwf_d-132">
          <mxGeometry y="480" width="180" height="30" as="geometry" />
        </mxCell>
        <mxCell id="oT1v5HtR9lcozDzWwf_d-180" value="" style="shape=partialRectangle;connectable=0;fillColor=none;top=0;left=0;bottom=0;right=0;editable=1;overflow=hidden;whiteSpace=wrap;html=1;" vertex="1" parent="oT1v5HtR9lcozDzWwf_d-179">
          <mxGeometry width="30" height="30" as="geometry">
            <mxRectangle width="30" height="30" as="alternateBounds" />
          </mxGeometry>
        </mxCell>
        <mxCell id="oT1v5HtR9lcozDzWwf_d-181" value="&lt;span style=&quot;text-wrap-mode: nowrap;&quot;&gt;age&lt;/span&gt;" style="shape=partialRectangle;connectable=0;fillColor=none;top=0;left=0;bottom=0;right=0;align=left;spacingLeft=6;overflow=hidden;whiteSpace=wrap;html=1;" vertex="1" parent="oT1v5HtR9lcozDzWwf_d-179">
          <mxGeometry x="30" width="150" height="30" as="geometry">
            <mxRectangle width="150" height="30" as="alternateBounds" />
          </mxGeometry>
        </mxCell>
        <mxCell id="oT1v5HtR9lcozDzWwf_d-175" value="&lt;div style=&quot;color: rgb(187, 187, 187); background-color: rgb(43, 43, 43); font-family: Menlo, Monaco, &amp;quot;Courier New&amp;quot;, monospace; line-height: 18px; white-space: pre;&quot;&gt;&lt;div style=&quot;line-height: 18px;&quot;&gt;&lt;div&gt;&lt;span style=&quot;color: #cc7832;&quot;&gt;select&lt;/span&gt;&lt;/div&gt;&lt;div&gt;&lt;span style=&quot;color: #a9b7c6;&quot;&gt;    t.*,&lt;/span&gt;&lt;/div&gt;&lt;div&gt;&lt;span style=&quot;color: #a9b7c6;&quot;&gt;    u.sex,&lt;/span&gt;&lt;/div&gt;&lt;div&gt;&lt;span style=&quot;color: #a9b7c6;&quot;&gt;    extract(&lt;/span&gt;&lt;span style=&quot;color: #cc7832;&quot;&gt;year&lt;/span&gt;&lt;span style=&quot;color: #a9b7c6;&quot;&gt; &lt;/span&gt;&lt;span style=&quot;color: #cc7832;&quot;&gt;from&lt;/span&gt;&lt;span style=&quot;color: #a9b7c6;&quot;&gt; t.started_at) - extract(&lt;/span&gt;&lt;span style=&quot;color: #cc7832;&quot;&gt;year&lt;/span&gt;&lt;span style=&quot;color: #a9b7c6;&quot;&gt; &lt;/span&gt;&lt;span style=&quot;color: #cc7832;&quot;&gt;from&lt;/span&gt;&lt;span style=&quot;color: #a9b7c6;&quot;&gt; u.birth_date) &lt;/span&gt;&lt;span style=&quot;color: #cc7832;&quot;&gt;as&lt;/span&gt;&lt;span style=&quot;color: #a9b7c6;&quot;&gt; age&lt;/span&gt;&lt;/div&gt;&lt;div&gt;&lt;span style=&quot;color: #cc7832;&quot;&gt;from&lt;/span&gt;&lt;/div&gt;&lt;div&gt;&lt;span style=&quot;color: #a9b7c6;&quot;&gt;    {{ ref(&lt;/span&gt;&lt;span style=&quot;color: #6a8759;&quot;&gt;&quot;trips_prep&quot;&lt;/span&gt;&lt;span style=&quot;color: #a9b7c6;&quot;&gt;) }} &lt;/span&gt;&lt;span style=&quot;color: #cc7832;&quot;&gt;as&lt;/span&gt;&lt;span style=&quot;color: #a9b7c6;&quot;&gt; t&lt;/span&gt;&lt;/div&gt;&lt;div&gt;&lt;span style=&quot;color: #cc7832;&quot;&gt;left join&lt;/span&gt;&lt;/div&gt;&lt;div&gt;&lt;span style=&quot;color: #a9b7c6;&quot;&gt;    {{ source(&lt;/span&gt;&lt;span style=&quot;color: #6a8759;&quot;&gt;&quot;scooters_raw&quot;&lt;/span&gt;&lt;span style=&quot;color: #a9b7c6;&quot;&gt;, &lt;/span&gt;&lt;span style=&quot;color: #6a8759;&quot;&gt;&quot;users&quot;&lt;/span&gt;&lt;span style=&quot;color: #a9b7c6;&quot;&gt;) }} &lt;/span&gt;&lt;span style=&quot;color: #cc7832;&quot;&gt;as&lt;/span&gt;&lt;span style=&quot;color: #a9b7c6;&quot;&gt; u&lt;/span&gt;&lt;/div&gt;&lt;div&gt;&lt;span style=&quot;color: #a9b7c6;&quot;&gt;    &lt;/span&gt;&lt;span style=&quot;color: #cc7832;&quot;&gt;on&lt;/span&gt;&lt;span style=&quot;color: #a9b7c6;&quot;&gt; t.user_id = u.id&lt;/span&gt;&lt;/div&gt;&lt;/div&gt;&lt;/div&gt;" style="text;strokeColor=none;fillColor=none;spacingLeft=4;spacingRight=4;overflow=hidden;rotatable=0;points=[[0,0.5],[1,0.5]];portConstraint=eastwest;fontSize=12;whiteSpace=wrap;html=1;" vertex="1" parent="1">
          <mxGeometry x="350" y="1920" width="540" height="180" as="geometry" />
        </mxCell>
        <mxCell id="oT1v5HtR9lcozDzWwf_d-182" value="" style="endArrow=none;html=1;rounded=0;" edge="1" parent="1">
          <mxGeometry relative="1" as="geometry">
            <mxPoint x="90" y="2530" as="sourcePoint" />
            <mxPoint x="850" y="2530" as="targetPoint" />
          </mxGeometry>
        </mxCell>
        <mxCell id="oT1v5HtR9lcozDzWwf_d-183" value="1" style="resizable=0;html=1;whiteSpace=wrap;align=right;verticalAlign=bottom;" connectable="0" vertex="1" parent="oT1v5HtR9lcozDzWwf_d-182">
          <mxGeometry x="1" relative="1" as="geometry" />
        </mxCell>
        <mxCell id="oT1v5HtR9lcozDzWwf_d-184" value="&lt;font style=&quot;font-size: 18px;&quot;&gt;Prepared trips enriched with users data&lt;/font&gt;" style="text;strokeColor=none;fillColor=none;spacingLeft=4;spacingRight=4;overflow=hidden;rotatable=0;points=[[0,0.5],[1,0.5]];portConstraint=eastwest;fontSize=12;whiteSpace=wrap;html=1;" vertex="1" parent="1">
          <mxGeometry x="80" y="2550" width="345" height="30" as="geometry" />
        </mxCell>
        <mxCell id="oT1v5HtR9lcozDzWwf_d-185" value="trips_users" style="shape=table;startSize=30;container=1;collapsible=1;childLayout=tableLayout;fixedRows=1;rowLines=0;fontStyle=1;align=center;resizeLast=1;html=1;" vertex="1" parent="1">
          <mxGeometry x="85" y="2610" width="180" height="570" as="geometry" />
        </mxCell>
        <mxCell id="oT1v5HtR9lcozDzWwf_d-186" value="" style="shape=tableRow;horizontal=0;startSize=0;swimlaneHead=0;swimlaneBody=0;fillColor=none;collapsible=0;dropTarget=0;points=[[0,0.5],[1,0.5]];portConstraint=eastwest;top=0;left=0;right=0;bottom=1;" vertex="1" parent="oT1v5HtR9lcozDzWwf_d-185">
          <mxGeometry y="30" width="180" height="30" as="geometry" />
        </mxCell>
        <mxCell id="oT1v5HtR9lcozDzWwf_d-187" value="PK" style="shape=partialRectangle;connectable=0;fillColor=none;top=0;left=0;bottom=0;right=0;fontStyle=1;overflow=hidden;whiteSpace=wrap;html=1;" vertex="1" parent="oT1v5HtR9lcozDzWwf_d-186">
          <mxGeometry width="30" height="30" as="geometry">
            <mxRectangle width="30" height="30" as="alternateBounds" />
          </mxGeometry>
        </mxCell>
        <mxCell id="oT1v5HtR9lcozDzWwf_d-188" value="id" style="shape=partialRectangle;connectable=0;fillColor=none;top=0;left=0;bottom=0;right=0;align=left;spacingLeft=6;fontStyle=5;overflow=hidden;whiteSpace=wrap;html=1;" vertex="1" parent="oT1v5HtR9lcozDzWwf_d-186">
          <mxGeometry x="30" width="150" height="30" as="geometry">
            <mxRectangle width="150" height="30" as="alternateBounds" />
          </mxGeometry>
        </mxCell>
        <mxCell id="oT1v5HtR9lcozDzWwf_d-189" value="" style="shape=tableRow;horizontal=0;startSize=0;swimlaneHead=0;swimlaneBody=0;fillColor=none;collapsible=0;dropTarget=0;points=[[0,0.5],[1,0.5]];portConstraint=eastwest;top=0;left=0;right=0;bottom=0;" vertex="1" parent="oT1v5HtR9lcozDzWwf_d-185">
          <mxGeometry y="60" width="180" height="30" as="geometry" />
        </mxCell>
        <mxCell id="oT1v5HtR9lcozDzWwf_d-190" value="" style="shape=partialRectangle;connectable=0;fillColor=none;top=0;left=0;bottom=0;right=0;editable=1;overflow=hidden;whiteSpace=wrap;html=1;" vertex="1" parent="oT1v5HtR9lcozDzWwf_d-189">
          <mxGeometry width="30" height="30" as="geometry">
            <mxRectangle width="30" height="30" as="alternateBounds" />
          </mxGeometry>
        </mxCell>
        <mxCell id="oT1v5HtR9lcozDzWwf_d-191" value="&lt;span style=&quot;text-wrap-mode: nowrap;&quot;&gt;user_id&lt;/span&gt;" style="shape=partialRectangle;connectable=0;fillColor=none;top=0;left=0;bottom=0;right=0;align=left;spacingLeft=6;overflow=hidden;whiteSpace=wrap;html=1;" vertex="1" parent="oT1v5HtR9lcozDzWwf_d-189">
          <mxGeometry x="30" width="150" height="30" as="geometry">
            <mxRectangle width="150" height="30" as="alternateBounds" />
          </mxGeometry>
        </mxCell>
        <mxCell id="oT1v5HtR9lcozDzWwf_d-192" value="" style="shape=tableRow;horizontal=0;startSize=0;swimlaneHead=0;swimlaneBody=0;fillColor=none;collapsible=0;dropTarget=0;points=[[0,0.5],[1,0.5]];portConstraint=eastwest;top=0;left=0;right=0;bottom=0;" vertex="1" parent="oT1v5HtR9lcozDzWwf_d-185">
          <mxGeometry y="90" width="180" height="30" as="geometry" />
        </mxCell>
        <mxCell id="oT1v5HtR9lcozDzWwf_d-193" value="" style="shape=partialRectangle;connectable=0;fillColor=none;top=0;left=0;bottom=0;right=0;editable=1;overflow=hidden;whiteSpace=wrap;html=1;" vertex="1" parent="oT1v5HtR9lcozDzWwf_d-192">
          <mxGeometry width="30" height="30" as="geometry">
            <mxRectangle width="30" height="30" as="alternateBounds" />
          </mxGeometry>
        </mxCell>
        <mxCell id="oT1v5HtR9lcozDzWwf_d-194" value="&lt;span style=&quot;text-wrap-mode: nowrap;&quot;&gt;scooter_hw_id&lt;/span&gt;" style="shape=partialRectangle;connectable=0;fillColor=none;top=0;left=0;bottom=0;right=0;align=left;spacingLeft=6;overflow=hidden;whiteSpace=wrap;html=1;" vertex="1" parent="oT1v5HtR9lcozDzWwf_d-192">
          <mxGeometry x="30" width="150" height="30" as="geometry">
            <mxRectangle width="150" height="30" as="alternateBounds" />
          </mxGeometry>
        </mxCell>
        <mxCell id="oT1v5HtR9lcozDzWwf_d-195" value="" style="shape=tableRow;horizontal=0;startSize=0;swimlaneHead=0;swimlaneBody=0;fillColor=none;collapsible=0;dropTarget=0;points=[[0,0.5],[1,0.5]];portConstraint=eastwest;top=0;left=0;right=0;bottom=0;" vertex="1" parent="oT1v5HtR9lcozDzWwf_d-185">
          <mxGeometry y="120" width="180" height="30" as="geometry" />
        </mxCell>
        <mxCell id="oT1v5HtR9lcozDzWwf_d-196" value="" style="shape=partialRectangle;connectable=0;fillColor=none;top=0;left=0;bottom=0;right=0;editable=1;overflow=hidden;whiteSpace=wrap;html=1;" vertex="1" parent="oT1v5HtR9lcozDzWwf_d-195">
          <mxGeometry width="30" height="30" as="geometry">
            <mxRectangle width="30" height="30" as="alternateBounds" />
          </mxGeometry>
        </mxCell>
        <mxCell id="oT1v5HtR9lcozDzWwf_d-197" value="&lt;span style=&quot;text-wrap-mode: nowrap;&quot;&gt;started_at&lt;/span&gt;" style="shape=partialRectangle;connectable=0;fillColor=none;top=0;left=0;bottom=0;right=0;align=left;spacingLeft=6;overflow=hidden;whiteSpace=wrap;html=1;" vertex="1" parent="oT1v5HtR9lcozDzWwf_d-195">
          <mxGeometry x="30" width="150" height="30" as="geometry">
            <mxRectangle width="150" height="30" as="alternateBounds" />
          </mxGeometry>
        </mxCell>
        <mxCell id="oT1v5HtR9lcozDzWwf_d-198" value="" style="shape=tableRow;horizontal=0;startSize=0;swimlaneHead=0;swimlaneBody=0;fillColor=none;collapsible=0;dropTarget=0;points=[[0,0.5],[1,0.5]];portConstraint=eastwest;top=0;left=0;right=0;bottom=0;" vertex="1" parent="oT1v5HtR9lcozDzWwf_d-185">
          <mxGeometry y="150" width="180" height="30" as="geometry" />
        </mxCell>
        <mxCell id="oT1v5HtR9lcozDzWwf_d-199" value="" style="shape=partialRectangle;connectable=0;fillColor=none;top=0;left=0;bottom=0;right=0;editable=1;overflow=hidden;whiteSpace=wrap;html=1;" vertex="1" parent="oT1v5HtR9lcozDzWwf_d-198">
          <mxGeometry width="30" height="30" as="geometry">
            <mxRectangle width="30" height="30" as="alternateBounds" />
          </mxGeometry>
        </mxCell>
        <mxCell id="oT1v5HtR9lcozDzWwf_d-200" value="&lt;span style=&quot;text-wrap-mode: nowrap;&quot;&gt;finished_at&lt;/span&gt;" style="shape=partialRectangle;connectable=0;fillColor=none;top=0;left=0;bottom=0;right=0;align=left;spacingLeft=6;overflow=hidden;whiteSpace=wrap;html=1;" vertex="1" parent="oT1v5HtR9lcozDzWwf_d-198">
          <mxGeometry x="30" width="150" height="30" as="geometry">
            <mxRectangle width="150" height="30" as="alternateBounds" />
          </mxGeometry>
        </mxCell>
        <mxCell id="oT1v5HtR9lcozDzWwf_d-201" value="" style="shape=tableRow;horizontal=0;startSize=0;swimlaneHead=0;swimlaneBody=0;fillColor=none;collapsible=0;dropTarget=0;points=[[0,0.5],[1,0.5]];portConstraint=eastwest;top=0;left=0;right=0;bottom=0;" vertex="1" parent="oT1v5HtR9lcozDzWwf_d-185">
          <mxGeometry y="180" width="180" height="30" as="geometry" />
        </mxCell>
        <mxCell id="oT1v5HtR9lcozDzWwf_d-202" value="" style="shape=partialRectangle;connectable=0;fillColor=none;top=0;left=0;bottom=0;right=0;editable=1;overflow=hidden;whiteSpace=wrap;html=1;" vertex="1" parent="oT1v5HtR9lcozDzWwf_d-201">
          <mxGeometry width="30" height="30" as="geometry">
            <mxRectangle width="30" height="30" as="alternateBounds" />
          </mxGeometry>
        </mxCell>
        <mxCell id="oT1v5HtR9lcozDzWwf_d-203" value="&lt;span style=&quot;text-wrap-mode: nowrap;&quot;&gt;start_lat&lt;/span&gt;" style="shape=partialRectangle;connectable=0;fillColor=none;top=0;left=0;bottom=0;right=0;align=left;spacingLeft=6;overflow=hidden;whiteSpace=wrap;html=1;" vertex="1" parent="oT1v5HtR9lcozDzWwf_d-201">
          <mxGeometry x="30" width="150" height="30" as="geometry">
            <mxRectangle width="150" height="30" as="alternateBounds" />
          </mxGeometry>
        </mxCell>
        <mxCell id="oT1v5HtR9lcozDzWwf_d-204" value="" style="shape=tableRow;horizontal=0;startSize=0;swimlaneHead=0;swimlaneBody=0;fillColor=none;collapsible=0;dropTarget=0;points=[[0,0.5],[1,0.5]];portConstraint=eastwest;top=0;left=0;right=0;bottom=0;" vertex="1" parent="oT1v5HtR9lcozDzWwf_d-185">
          <mxGeometry y="210" width="180" height="30" as="geometry" />
        </mxCell>
        <mxCell id="oT1v5HtR9lcozDzWwf_d-205" value="" style="shape=partialRectangle;connectable=0;fillColor=none;top=0;left=0;bottom=0;right=0;editable=1;overflow=hidden;whiteSpace=wrap;html=1;" vertex="1" parent="oT1v5HtR9lcozDzWwf_d-204">
          <mxGeometry width="30" height="30" as="geometry">
            <mxRectangle width="30" height="30" as="alternateBounds" />
          </mxGeometry>
        </mxCell>
        <mxCell id="oT1v5HtR9lcozDzWwf_d-206" value="&lt;span style=&quot;text-wrap-mode: nowrap;&quot;&gt;start_lon&lt;/span&gt;" style="shape=partialRectangle;connectable=0;fillColor=none;top=0;left=0;bottom=0;right=0;align=left;spacingLeft=6;overflow=hidden;whiteSpace=wrap;html=1;" vertex="1" parent="oT1v5HtR9lcozDzWwf_d-204">
          <mxGeometry x="30" width="150" height="30" as="geometry">
            <mxRectangle width="150" height="30" as="alternateBounds" />
          </mxGeometry>
        </mxCell>
        <mxCell id="oT1v5HtR9lcozDzWwf_d-207" value="" style="shape=tableRow;horizontal=0;startSize=0;swimlaneHead=0;swimlaneBody=0;fillColor=none;collapsible=0;dropTarget=0;points=[[0,0.5],[1,0.5]];portConstraint=eastwest;top=0;left=0;right=0;bottom=0;" vertex="1" parent="oT1v5HtR9lcozDzWwf_d-185">
          <mxGeometry y="240" width="180" height="30" as="geometry" />
        </mxCell>
        <mxCell id="oT1v5HtR9lcozDzWwf_d-208" value="" style="shape=partialRectangle;connectable=0;fillColor=none;top=0;left=0;bottom=0;right=0;editable=1;overflow=hidden;whiteSpace=wrap;html=1;" vertex="1" parent="oT1v5HtR9lcozDzWwf_d-207">
          <mxGeometry width="30" height="30" as="geometry">
            <mxRectangle width="30" height="30" as="alternateBounds" />
          </mxGeometry>
        </mxCell>
        <mxCell id="oT1v5HtR9lcozDzWwf_d-209" value="&lt;span style=&quot;text-wrap-mode: nowrap;&quot;&gt;finish_lat&lt;/span&gt;" style="shape=partialRectangle;connectable=0;fillColor=none;top=0;left=0;bottom=0;right=0;align=left;spacingLeft=6;overflow=hidden;whiteSpace=wrap;html=1;" vertex="1" parent="oT1v5HtR9lcozDzWwf_d-207">
          <mxGeometry x="30" width="150" height="30" as="geometry">
            <mxRectangle width="150" height="30" as="alternateBounds" />
          </mxGeometry>
        </mxCell>
        <mxCell id="oT1v5HtR9lcozDzWwf_d-210" value="" style="shape=tableRow;horizontal=0;startSize=0;swimlaneHead=0;swimlaneBody=0;fillColor=none;collapsible=0;dropTarget=0;points=[[0,0.5],[1,0.5]];portConstraint=eastwest;top=0;left=0;right=0;bottom=0;" vertex="1" parent="oT1v5HtR9lcozDzWwf_d-185">
          <mxGeometry y="270" width="180" height="30" as="geometry" />
        </mxCell>
        <mxCell id="oT1v5HtR9lcozDzWwf_d-211" value="" style="shape=partialRectangle;connectable=0;fillColor=none;top=0;left=0;bottom=0;right=0;editable=1;overflow=hidden;whiteSpace=wrap;html=1;" vertex="1" parent="oT1v5HtR9lcozDzWwf_d-210">
          <mxGeometry width="30" height="30" as="geometry">
            <mxRectangle width="30" height="30" as="alternateBounds" />
          </mxGeometry>
        </mxCell>
        <mxCell id="oT1v5HtR9lcozDzWwf_d-212" value="&lt;span style=&quot;text-wrap-mode: nowrap;&quot;&gt;finish_lon&lt;/span&gt;" style="shape=partialRectangle;connectable=0;fillColor=none;top=0;left=0;bottom=0;right=0;align=left;spacingLeft=6;overflow=hidden;whiteSpace=wrap;html=1;" vertex="1" parent="oT1v5HtR9lcozDzWwf_d-210">
          <mxGeometry x="30" width="150" height="30" as="geometry">
            <mxRectangle width="150" height="30" as="alternateBounds" />
          </mxGeometry>
        </mxCell>
        <mxCell id="oT1v5HtR9lcozDzWwf_d-213" value="" style="shape=tableRow;horizontal=0;startSize=0;swimlaneHead=0;swimlaneBody=0;fillColor=none;collapsible=0;dropTarget=0;points=[[0,0.5],[1,0.5]];portConstraint=eastwest;top=0;left=0;right=0;bottom=0;" vertex="1" parent="oT1v5HtR9lcozDzWwf_d-185">
          <mxGeometry y="300" width="180" height="30" as="geometry" />
        </mxCell>
        <mxCell id="oT1v5HtR9lcozDzWwf_d-214" value="" style="shape=partialRectangle;connectable=0;fillColor=none;top=0;left=0;bottom=0;right=0;editable=1;overflow=hidden;whiteSpace=wrap;html=1;" vertex="1" parent="oT1v5HtR9lcozDzWwf_d-213">
          <mxGeometry width="30" height="30" as="geometry">
            <mxRectangle width="30" height="30" as="alternateBounds" />
          </mxGeometry>
        </mxCell>
        <mxCell id="oT1v5HtR9lcozDzWwf_d-215" value="&lt;span style=&quot;text-wrap-mode: nowrap;&quot;&gt;distance_m&lt;/span&gt;" style="shape=partialRectangle;connectable=0;fillColor=none;top=0;left=0;bottom=0;right=0;align=left;spacingLeft=6;overflow=hidden;whiteSpace=wrap;html=1;" vertex="1" parent="oT1v5HtR9lcozDzWwf_d-213">
          <mxGeometry x="30" width="150" height="30" as="geometry">
            <mxRectangle width="150" height="30" as="alternateBounds" />
          </mxGeometry>
        </mxCell>
        <mxCell id="oT1v5HtR9lcozDzWwf_d-216" value="" style="shape=tableRow;horizontal=0;startSize=0;swimlaneHead=0;swimlaneBody=0;fillColor=none;collapsible=0;dropTarget=0;points=[[0,0.5],[1,0.5]];portConstraint=eastwest;top=0;left=0;right=0;bottom=0;" vertex="1" parent="oT1v5HtR9lcozDzWwf_d-185">
          <mxGeometry y="330" width="180" height="30" as="geometry" />
        </mxCell>
        <mxCell id="oT1v5HtR9lcozDzWwf_d-217" value="" style="shape=partialRectangle;connectable=0;fillColor=none;top=0;left=0;bottom=0;right=0;editable=1;overflow=hidden;whiteSpace=wrap;html=1;" vertex="1" parent="oT1v5HtR9lcozDzWwf_d-216">
          <mxGeometry width="30" height="30" as="geometry">
            <mxRectangle width="30" height="30" as="alternateBounds" />
          </mxGeometry>
        </mxCell>
        <mxCell id="oT1v5HtR9lcozDzWwf_d-218" value="&lt;span style=&quot;text-wrap-mode: nowrap;&quot;&gt;price_rub&lt;/span&gt;" style="shape=partialRectangle;connectable=0;fillColor=none;top=0;left=0;bottom=0;right=0;align=left;spacingLeft=6;overflow=hidden;whiteSpace=wrap;html=1;" vertex="1" parent="oT1v5HtR9lcozDzWwf_d-216">
          <mxGeometry x="30" width="150" height="30" as="geometry">
            <mxRectangle width="150" height="30" as="alternateBounds" />
          </mxGeometry>
        </mxCell>
        <mxCell id="oT1v5HtR9lcozDzWwf_d-219" value="" style="shape=tableRow;horizontal=0;startSize=0;swimlaneHead=0;swimlaneBody=0;fillColor=none;collapsible=0;dropTarget=0;points=[[0,0.5],[1,0.5]];portConstraint=eastwest;top=0;left=0;right=0;bottom=0;" vertex="1" parent="oT1v5HtR9lcozDzWwf_d-185">
          <mxGeometry y="360" width="180" height="30" as="geometry" />
        </mxCell>
        <mxCell id="oT1v5HtR9lcozDzWwf_d-220" value="" style="shape=partialRectangle;connectable=0;fillColor=none;top=0;left=0;bottom=0;right=0;editable=1;overflow=hidden;whiteSpace=wrap;html=1;" vertex="1" parent="oT1v5HtR9lcozDzWwf_d-219">
          <mxGeometry width="30" height="30" as="geometry">
            <mxRectangle width="30" height="30" as="alternateBounds" />
          </mxGeometry>
        </mxCell>
        <mxCell id="oT1v5HtR9lcozDzWwf_d-221" value="&lt;span style=&quot;text-wrap-mode: nowrap;&quot;&gt;duration_s&lt;/span&gt;" style="shape=partialRectangle;connectable=0;fillColor=none;top=0;left=0;bottom=0;right=0;align=left;spacingLeft=6;overflow=hidden;whiteSpace=wrap;html=1;" vertex="1" parent="oT1v5HtR9lcozDzWwf_d-219">
          <mxGeometry x="30" width="150" height="30" as="geometry">
            <mxRectangle width="150" height="30" as="alternateBounds" />
          </mxGeometry>
        </mxCell>
        <mxCell id="oT1v5HtR9lcozDzWwf_d-222" value="" style="shape=tableRow;horizontal=0;startSize=0;swimlaneHead=0;swimlaneBody=0;fillColor=none;collapsible=0;dropTarget=0;points=[[0,0.5],[1,0.5]];portConstraint=eastwest;top=0;left=0;right=0;bottom=0;" vertex="1" parent="oT1v5HtR9lcozDzWwf_d-185">
          <mxGeometry y="390" width="180" height="30" as="geometry" />
        </mxCell>
        <mxCell id="oT1v5HtR9lcozDzWwf_d-223" value="" style="shape=partialRectangle;connectable=0;fillColor=none;top=0;left=0;bottom=0;right=0;editable=1;overflow=hidden;whiteSpace=wrap;html=1;" vertex="1" parent="oT1v5HtR9lcozDzWwf_d-222">
          <mxGeometry width="30" height="30" as="geometry">
            <mxRectangle width="30" height="30" as="alternateBounds" />
          </mxGeometry>
        </mxCell>
        <mxCell id="oT1v5HtR9lcozDzWwf_d-224" value="&lt;span style=&quot;text-wrap-mode: nowrap;&quot;&gt;is_free&lt;/span&gt;" style="shape=partialRectangle;connectable=0;fillColor=none;top=0;left=0;bottom=0;right=0;align=left;spacingLeft=6;overflow=hidden;whiteSpace=wrap;html=1;" vertex="1" parent="oT1v5HtR9lcozDzWwf_d-222">
          <mxGeometry x="30" width="150" height="30" as="geometry">
            <mxRectangle width="150" height="30" as="alternateBounds" />
          </mxGeometry>
        </mxCell>
        <mxCell id="oT1v5HtR9lcozDzWwf_d-225" value="" style="shape=tableRow;horizontal=0;startSize=0;swimlaneHead=0;swimlaneBody=0;fillColor=none;collapsible=0;dropTarget=0;points=[[0,0.5],[1,0.5]];portConstraint=eastwest;top=0;left=0;right=0;bottom=0;" vertex="1" parent="oT1v5HtR9lcozDzWwf_d-185">
          <mxGeometry y="420" width="180" height="30" as="geometry" />
        </mxCell>
        <mxCell id="oT1v5HtR9lcozDzWwf_d-226" value="" style="shape=partialRectangle;connectable=0;fillColor=none;top=0;left=0;bottom=0;right=0;editable=1;overflow=hidden;whiteSpace=wrap;html=1;" vertex="1" parent="oT1v5HtR9lcozDzWwf_d-225">
          <mxGeometry width="30" height="30" as="geometry">
            <mxRectangle width="30" height="30" as="alternateBounds" />
          </mxGeometry>
        </mxCell>
        <mxCell id="oT1v5HtR9lcozDzWwf_d-227" value="&lt;span style=&quot;text-wrap-mode: nowrap;&quot;&gt;date&lt;/span&gt;" style="shape=partialRectangle;connectable=0;fillColor=none;top=0;left=0;bottom=0;right=0;align=left;spacingLeft=6;overflow=hidden;whiteSpace=wrap;html=1;" vertex="1" parent="oT1v5HtR9lcozDzWwf_d-225">
          <mxGeometry x="30" width="150" height="30" as="geometry">
            <mxRectangle width="150" height="30" as="alternateBounds" />
          </mxGeometry>
        </mxCell>
        <mxCell id="oT1v5HtR9lcozDzWwf_d-228" value="" style="shape=tableRow;horizontal=0;startSize=0;swimlaneHead=0;swimlaneBody=0;fillColor=none;collapsible=0;dropTarget=0;points=[[0,0.5],[1,0.5]];portConstraint=eastwest;top=0;left=0;right=0;bottom=0;" vertex="1" parent="oT1v5HtR9lcozDzWwf_d-185">
          <mxGeometry y="450" width="180" height="30" as="geometry" />
        </mxCell>
        <mxCell id="oT1v5HtR9lcozDzWwf_d-229" value="" style="shape=partialRectangle;connectable=0;fillColor=none;top=0;left=0;bottom=0;right=0;editable=1;overflow=hidden;whiteSpace=wrap;html=1;" vertex="1" parent="oT1v5HtR9lcozDzWwf_d-228">
          <mxGeometry width="30" height="30" as="geometry">
            <mxRectangle width="30" height="30" as="alternateBounds" />
          </mxGeometry>
        </mxCell>
        <mxCell id="oT1v5HtR9lcozDzWwf_d-230" value="&lt;span style=&quot;text-wrap-mode: nowrap;&quot;&gt;sex&lt;/span&gt;" style="shape=partialRectangle;connectable=0;fillColor=none;top=0;left=0;bottom=0;right=0;align=left;spacingLeft=6;overflow=hidden;whiteSpace=wrap;html=1;" vertex="1" parent="oT1v5HtR9lcozDzWwf_d-228">
          <mxGeometry x="30" width="150" height="30" as="geometry">
            <mxRectangle width="150" height="30" as="alternateBounds" />
          </mxGeometry>
        </mxCell>
        <mxCell id="oT1v5HtR9lcozDzWwf_d-231" value="" style="shape=tableRow;horizontal=0;startSize=0;swimlaneHead=0;swimlaneBody=0;fillColor=none;collapsible=0;dropTarget=0;points=[[0,0.5],[1,0.5]];portConstraint=eastwest;top=0;left=0;right=0;bottom=0;" vertex="1" parent="oT1v5HtR9lcozDzWwf_d-185">
          <mxGeometry y="480" width="180" height="30" as="geometry" />
        </mxCell>
        <mxCell id="oT1v5HtR9lcozDzWwf_d-232" value="" style="shape=partialRectangle;connectable=0;fillColor=none;top=0;left=0;bottom=0;right=0;editable=1;overflow=hidden;whiteSpace=wrap;html=1;" vertex="1" parent="oT1v5HtR9lcozDzWwf_d-231">
          <mxGeometry width="30" height="30" as="geometry">
            <mxRectangle width="30" height="30" as="alternateBounds" />
          </mxGeometry>
        </mxCell>
        <mxCell id="oT1v5HtR9lcozDzWwf_d-233" value="&lt;span style=&quot;text-wrap-mode: nowrap;&quot;&gt;age&lt;/span&gt;" style="shape=partialRectangle;connectable=0;fillColor=none;top=0;left=0;bottom=0;right=0;align=left;spacingLeft=6;overflow=hidden;whiteSpace=wrap;html=1;" vertex="1" parent="oT1v5HtR9lcozDzWwf_d-231">
          <mxGeometry x="30" width="150" height="30" as="geometry">
            <mxRectangle width="150" height="30" as="alternateBounds" />
          </mxGeometry>
        </mxCell>
        <mxCell id="oT1v5HtR9lcozDzWwf_d-234" value="&lt;div style=&quot;color: rgb(187, 187, 187); background-color: rgb(43, 43, 43); font-family: Menlo, Monaco, &amp;quot;Courier New&amp;quot;, monospace; line-height: 18px; white-space: pre;&quot;&gt;&lt;div style=&quot;line-height: 18px;&quot;&gt;&lt;div&gt;&lt;span style=&quot;color: #cc7832;&quot;&gt;select&lt;/span&gt;&lt;/div&gt;&lt;div&gt;&lt;span style=&quot;color: #a9b7c6;&quot;&gt;    t.*,&lt;/span&gt;&lt;/div&gt;&lt;div&gt;&lt;span style=&quot;color: #a9b7c6;&quot;&gt;    u.sex,&lt;/span&gt;&lt;/div&gt;&lt;div&gt;&lt;span style=&quot;color: #a9b7c6;&quot;&gt;    extract(&lt;/span&gt;&lt;span style=&quot;color: #cc7832;&quot;&gt;year&lt;/span&gt;&lt;span style=&quot;color: #a9b7c6;&quot;&gt; &lt;/span&gt;&lt;span style=&quot;color: #cc7832;&quot;&gt;from&lt;/span&gt;&lt;span style=&quot;color: #a9b7c6;&quot;&gt; t.started_at) - extract(&lt;/span&gt;&lt;span style=&quot;color: #cc7832;&quot;&gt;year&lt;/span&gt;&lt;span style=&quot;color: #a9b7c6;&quot;&gt; &lt;/span&gt;&lt;span style=&quot;color: #cc7832;&quot;&gt;from&lt;/span&gt;&lt;span style=&quot;color: #a9b7c6;&quot;&gt; u.birth_date) &lt;/span&gt;&lt;span style=&quot;color: #cc7832;&quot;&gt;as&lt;/span&gt;&lt;span style=&quot;color: #a9b7c6;&quot;&gt; age&lt;/span&gt;&lt;/div&gt;&lt;div&gt;&lt;span style=&quot;color: #cc7832;&quot;&gt;from&lt;/span&gt;&lt;/div&gt;&lt;div&gt;&lt;span style=&quot;color: #a9b7c6;&quot;&gt;    {{ ref(&lt;/span&gt;&lt;span style=&quot;color: #6a8759;&quot;&gt;&quot;trips_prep&quot;&lt;/span&gt;&lt;span style=&quot;color: #a9b7c6;&quot;&gt;) }} &lt;/span&gt;&lt;span style=&quot;color: #cc7832;&quot;&gt;as&lt;/span&gt;&lt;span style=&quot;color: #a9b7c6;&quot;&gt; t&lt;/span&gt;&lt;/div&gt;&lt;div&gt;&lt;span style=&quot;color: #cc7832;&quot;&gt;left join&lt;/span&gt;&lt;/div&gt;&lt;div&gt;&lt;span style=&quot;color: #a9b7c6;&quot;&gt;    {{ source(&lt;/span&gt;&lt;span style=&quot;color: #6a8759;&quot;&gt;&quot;scooters_raw&quot;&lt;/span&gt;&lt;span style=&quot;color: #a9b7c6;&quot;&gt;, &lt;/span&gt;&lt;span style=&quot;color: #6a8759;&quot;&gt;&quot;users&quot;&lt;/span&gt;&lt;span style=&quot;color: #a9b7c6;&quot;&gt;) }} &lt;/span&gt;&lt;span style=&quot;color: #cc7832;&quot;&gt;as&lt;/span&gt;&lt;span style=&quot;color: #a9b7c6;&quot;&gt; u&lt;/span&gt;&lt;/div&gt;&lt;div&gt;&lt;span style=&quot;color: #a9b7c6;&quot;&gt;    &lt;/span&gt;&lt;span style=&quot;color: #cc7832;&quot;&gt;on&lt;/span&gt;&lt;span style=&quot;color: #a9b7c6;&quot;&gt; t.user_id = u.id&lt;/span&gt;&lt;/div&gt;&lt;/div&gt;&lt;/div&gt;" style="text;strokeColor=none;fillColor=none;spacingLeft=4;spacingRight=4;overflow=hidden;rotatable=0;points=[[0,0.5],[1,0.5]];portConstraint=eastwest;fontSize=12;whiteSpace=wrap;html=1;" vertex="1" parent="1">
          <mxGeometry x="355" y="2600" width="540" height="180" as="geometry" />
        </mxCell>
        <mxCell id="oT1v5HtR9lcozDzWwf_d-235" value="&lt;div style=&quot;color: rgb(187, 187, 187); background-color: rgb(43, 43, 43); font-family: Menlo, Monaco, &amp;quot;Courier New&amp;quot;, monospace; line-height: 18px; white-space: pre;&quot;&gt;&lt;div style=&quot;line-height: 18px;&quot;&gt;&lt;div style=&quot;line-height: 18px;&quot;&gt;&lt;div&gt;&lt;span style=&quot;color: #cc7832;&quot;&gt;select&lt;/span&gt;&lt;/div&gt;&lt;div&gt;&lt;span style=&quot;color: #a9b7c6;&quot;&gt;    t.*,&lt;/span&gt;&lt;/div&gt;&lt;div&gt;&lt;span style=&quot;color: #a9b7c6;&quot;&gt;    u.sex,&lt;/span&gt;&lt;/div&gt;&lt;div&gt;&lt;span style=&quot;color: #a9b7c6;&quot;&gt;    extract(&lt;/span&gt;&lt;span style=&quot;color: #cc7832;&quot;&gt;year&lt;/span&gt;&lt;span style=&quot;color: #a9b7c6;&quot;&gt; &lt;/span&gt;&lt;span style=&quot;color: #cc7832;&quot;&gt;from&lt;/span&gt;&lt;span style=&quot;color: #a9b7c6;&quot;&gt; t.started_at) - extract(&lt;/span&gt;&lt;span style=&quot;color: #cc7832;&quot;&gt;year&lt;/span&gt;&lt;span style=&quot;color: #a9b7c6;&quot;&gt; &lt;/span&gt;&lt;span style=&quot;color: #cc7832;&quot;&gt;from&lt;/span&gt;&lt;span style=&quot;color: #a9b7c6;&quot;&gt; u.birth_date) &lt;/span&gt;&lt;span style=&quot;color: #cc7832;&quot;&gt;as&lt;/span&gt;&lt;span style=&quot;color: #a9b7c6;&quot;&gt; age&lt;/span&gt;&lt;/div&gt;&lt;div&gt;&lt;span style=&quot;color: #cc7832;&quot;&gt;from&lt;/span&gt;&lt;/div&gt;&lt;div&gt;&lt;span style=&quot;color: #a9b7c6;&quot;&gt;    {{ ref(&lt;/span&gt;&lt;span style=&quot;color: #6a8759;&quot;&gt;&quot;trips_prep&quot;&lt;/span&gt;&lt;span style=&quot;color: #a9b7c6;&quot;&gt;) }} &lt;/span&gt;&lt;span style=&quot;color: #cc7832;&quot;&gt;as&lt;/span&gt;&lt;span style=&quot;color: #a9b7c6;&quot;&gt; t&lt;/span&gt;&lt;/div&gt;&lt;div&gt;&lt;span style=&quot;color: #cc7832;&quot;&gt;left join&lt;/span&gt;&lt;/div&gt;&lt;div&gt;&lt;span style=&quot;color: #a9b7c6;&quot;&gt;    {{ source(&lt;/span&gt;&lt;span style=&quot;color: #6a8759;&quot;&gt;&quot;scooters_raw&quot;&lt;/span&gt;&lt;span style=&quot;color: #a9b7c6;&quot;&gt;, &lt;/span&gt;&lt;span style=&quot;color: #6a8759;&quot;&gt;&quot;users&quot;&lt;/span&gt;&lt;span style=&quot;color: #a9b7c6;&quot;&gt;) }} &lt;/span&gt;&lt;span style=&quot;color: #cc7832;&quot;&gt;as&lt;/span&gt;&lt;span style=&quot;color: #a9b7c6;&quot;&gt; u&lt;/span&gt;&lt;/div&gt;&lt;div&gt;&lt;span style=&quot;color: #a9b7c6;&quot;&gt;    &lt;/span&gt;&lt;span style=&quot;color: #cc7832;&quot;&gt;on&lt;/span&gt;&lt;span style=&quot;color: #a9b7c6;&quot;&gt; t.user_id = u.id&lt;/span&gt;&lt;/div&gt;&lt;div&gt;&lt;span style=&quot;color: #a9b7c6;&quot;&gt;{% if is_incremental() %}&lt;/span&gt;&lt;/div&gt;&lt;div&gt;&lt;span style=&quot;color: #a9b7c6;&quot;&gt;    &lt;/span&gt;&lt;span style=&quot;color: #cc7832;&quot;&gt;where&lt;/span&gt;&lt;/div&gt;&lt;div&gt;&lt;span style=&quot;color: #a9b7c6;&quot;&gt;        t.id &amp;gt; (&lt;/span&gt;&lt;span style=&quot;color: #cc7832;&quot;&gt;select&lt;/span&gt;&lt;span style=&quot;color: #a9b7c6;&quot;&gt; max(id) &lt;/span&gt;&lt;span style=&quot;color: #cc7832;&quot;&gt;from&lt;/span&gt;&lt;span style=&quot;color: #a9b7c6;&quot;&gt; {{ this }})&lt;/span&gt;&lt;/div&gt;&lt;div&gt;&lt;span style=&quot;color: #a9b7c6;&quot;&gt;    &lt;/span&gt;&lt;span style=&quot;color: #cc7832;&quot;&gt;order by&lt;/span&gt;&lt;/div&gt;&lt;div&gt;&lt;span style=&quot;color: #a9b7c6;&quot;&gt;        t.id&lt;/span&gt;&lt;/div&gt;&lt;div&gt;&lt;span style=&quot;color: #a9b7c6;&quot;&gt;    &lt;/span&gt;&lt;span style=&quot;color: #cc7832;&quot;&gt;limit&lt;/span&gt;&lt;/div&gt;&lt;div&gt;&lt;span style=&quot;color: #a9b7c6;&quot;&gt;        &lt;/span&gt;&lt;span style=&quot;color: #6897bb;&quot;&gt;75000&lt;/span&gt;&lt;/div&gt;&lt;div&gt;&lt;span style=&quot;color: #a9b7c6;&quot;&gt;{% else %}&lt;/span&gt;&lt;/div&gt;&lt;div&gt;&lt;span style=&quot;color: #a9b7c6;&quot;&gt;    &lt;/span&gt;&lt;span style=&quot;color: #cc7832;&quot;&gt;where&lt;/span&gt;&lt;/div&gt;&lt;div&gt;&lt;span style=&quot;color: #a9b7c6;&quot;&gt;        t.id &amp;lt;= &lt;/span&gt;&lt;span style=&quot;color: #6897bb;&quot;&gt;75000&lt;/span&gt;&lt;/div&gt;&lt;div&gt;&lt;span style=&quot;color: #a9b7c6;&quot;&gt;{% endif %}&lt;/span&gt;&lt;/div&gt;&lt;/div&gt;&lt;/div&gt;&lt;/div&gt;" style="text;strokeColor=none;fillColor=none;spacingLeft=4;spacingRight=4;overflow=hidden;rotatable=0;points=[[0,0.5],[1,0.5]];portConstraint=eastwest;fontSize=12;whiteSpace=wrap;html=1;" vertex="1" parent="1">
          <mxGeometry x="355" y="2790" width="540" height="380" as="geometry" />
        </mxCell>
        <mxCell id="oT1v5HtR9lcozDzWwf_d-236" value="&lt;div style=&quot;color: rgb(187, 187, 187); background-color: rgb(43, 43, 43); font-family: Menlo, Monaco, &amp;quot;Courier New&amp;quot;, monospace; line-height: 18px; white-space: pre;&quot;&gt;&lt;div style=&quot;line-height: 18px;&quot;&gt;&lt;div&gt;&lt;span style=&quot;color: #cc7832;&quot;&gt;select&lt;/span&gt;&lt;/div&gt;&lt;div&gt;&lt;span style=&quot;color: #a9b7c6;&quot;&gt;    &lt;/span&gt;&lt;span style=&quot;color: #6a8759;&quot;&gt;&quot;date&quot;&lt;/span&gt;&lt;span style=&quot;color: #a9b7c6;&quot;&gt;,&lt;/span&gt;&lt;/div&gt;&lt;div&gt;&lt;span style=&quot;color: #a9b7c6;&quot;&gt;    age,&lt;/span&gt;&lt;/div&gt;&lt;div&gt;&lt;span style=&quot;color: #a9b7c6;&quot;&gt;    count(*) &lt;/span&gt;&lt;span style=&quot;color: #cc7832;&quot;&gt;as&lt;/span&gt;&lt;span style=&quot;color: #a9b7c6;&quot;&gt; trips,&lt;/span&gt;&lt;/div&gt;&lt;div&gt;&lt;span style=&quot;color: #a9b7c6;&quot;&gt;    sum(price_rub) &lt;/span&gt;&lt;span style=&quot;color: #cc7832;&quot;&gt;as&lt;/span&gt;&lt;span style=&quot;color: #a9b7c6;&quot;&gt; revenue_rub&lt;/span&gt;&lt;/div&gt;&lt;div&gt;&lt;span style=&quot;color: #cc7832;&quot;&gt;from&lt;/span&gt;&lt;/div&gt;&lt;div&gt;&lt;span style=&quot;color: #a9b7c6;&quot;&gt;    {{ ref(&lt;/span&gt;&lt;span style=&quot;color: #6a8759;&quot;&gt;&quot;trips_users&quot;&lt;/span&gt;&lt;span style=&quot;color: #a9b7c6;&quot;&gt;) }}&lt;/span&gt;&lt;/div&gt;&lt;div&gt;&lt;span style=&quot;color: #cc7832;&quot;&gt;group by&lt;/span&gt;&lt;/div&gt;&lt;div&gt;&lt;span style=&quot;color: #a9b7c6;&quot;&gt;    &lt;/span&gt;&lt;span style=&quot;color: #6897bb;&quot;&gt;1&lt;/span&gt;&lt;span style=&quot;color: #a9b7c6;&quot;&gt;,&lt;/span&gt;&lt;/div&gt;&lt;div&gt;&lt;span style=&quot;color: #a9b7c6;&quot;&gt;    &lt;/span&gt;&lt;span style=&quot;color: #6897bb;&quot;&gt;2&lt;/span&gt;&lt;/div&gt;&lt;/div&gt;&lt;/div&gt;" style="text;strokeColor=none;fillColor=none;spacingLeft=4;spacingRight=4;overflow=hidden;rotatable=0;points=[[0,0.5],[1,0.5]];portConstraint=eastwest;fontSize=12;whiteSpace=wrap;html=1;" vertex="1" parent="1">
          <mxGeometry x="350" y="1330" width="350" height="190" as="geometry" />
        </mxCell>
        <mxCell id="oT1v5HtR9lcozDzWwf_d-237" value="" style="endArrow=none;html=1;rounded=0;" edge="1" parent="1">
          <mxGeometry relative="1" as="geometry">
            <mxPoint x="80" y="1560" as="sourcePoint" />
            <mxPoint x="840" y="1560" as="targetPoint" />
          </mxGeometry>
        </mxCell>
        <mxCell id="oT1v5HtR9lcozDzWwf_d-238" value="1" style="resizable=0;html=1;whiteSpace=wrap;align=right;verticalAlign=bottom;" connectable="0" vertex="1" parent="oT1v5HtR9lcozDzWwf_d-237">
          <mxGeometry x="1" relative="1" as="geometry" />
        </mxCell>
      </root>
    </mxGraphModel>
  </diagram>
</mxfile>
